<svg width="182" height="50" viewBox="0 0 182 50" fill="none" xmlns="http://www.w3.org/2000/svg">
<g clip-path="url(#clip0_1837_889)">
<path d="M41.2633 25.0293C41.2633 35.2523 36.2447 44.2362 28.5 49.8124C40.6438 48.0776 49.9994 37.6067 49.9994 25.0293C49.9994 12.3898 40.6438 1.98091 28.5 0.246094C36.1828 5.76034 41.2633 14.8062 41.2633 25.0293Z" fill="#8F909A"/>
<path d="M17.4727 48.8239C19.2075 49.3815 20.9423 49.7533 22.801 49.8772C29.5545 43.6814 33.7676 34.8214 33.7676 24.9701C33.7676 15.1188 29.4925 6.25883 22.801 0.125C20.9423 0.310873 19.1455 0.682621 17.4727 1.17829C23.1728 7.43603 26.6424 15.8004 26.6424 25.0321C26.6424 34.2638 23.1728 42.5662 17.4727 48.8239Z" fill="#8F909A"/>
<path d="M0 25.0299C-3.76e-07 33.642 4.33704 41.2628 11.0285 45.7238C16.5428 40.5194 20.0124 33.1464 20.0124 25.0299C20.0124 16.8514 16.5428 9.47844 11.0285 4.33594C4.33705 8.7969 3.79e-07 16.3558 0 25.0299Z" fill="#8F909A"/>
<path d="M77.4329 16.9854C72.9379 16.9854 70.3649 20.2404 70.3649 25.1384C70.3649 30.1914 73.2789 32.9504 77.4639 32.9504C81.4009 32.9504 83.7879 30.7804 83.7879 27.1534V27.0604H76.9369V23.5574H87.4769V36.2984H84.1289L83.8809 33.6944C82.6409 35.4304 80.0679 36.6394 76.9989 36.6394C70.6439 36.6394 66.2109 32.0204 66.2109 25.0454C66.2109 18.1634 70.7059 13.2654 77.5259 13.2654C82.7029 13.2654 86.7019 16.2724 87.3529 20.8914H83.1679C82.4549 18.2254 80.1609 16.9854 77.4329 16.9854ZM100.814 20.9224V24.4254H99.4189C96.6909 24.4254 94.9859 25.8824 94.9859 28.8584V36.2984H91.2039V21.0154H94.7689L94.9859 23.2474C95.6369 21.7284 97.0939 20.7054 99.1399 20.7054C99.6669 20.7054 100.194 20.7674 100.814 20.9224ZM107.325 36.7014C104.07 36.7014 102.086 34.8104 102.086 31.9274C102.086 29.1064 104.132 27.3394 107.759 27.0604L112.347 26.7194V26.3784C112.347 24.3014 111.107 23.4644 109.185 23.4644C106.953 23.4644 105.713 24.3944 105.713 26.0064H102.489C102.489 22.6894 105.217 20.5194 109.371 20.5194C113.494 20.5194 116.036 22.7514 116.036 26.9984V36.2984H112.719L112.44 34.0354C111.789 35.6164 109.712 36.7014 107.325 36.7014ZM108.565 33.8494C110.89 33.8494 112.378 32.4544 112.378 30.0984V29.2924L109.185 29.5404C106.829 29.7574 105.93 30.5324 105.93 31.7724C105.93 33.1674 106.86 33.8494 108.565 33.8494ZM119.752 43.3974V20.9844H123.255L123.503 23.3094C124.433 21.5424 126.448 20.5194 128.773 20.5194C133.082 20.5194 135.934 23.6504 135.934 28.4554C135.934 33.2294 133.33 36.7014 128.773 36.7014C126.479 36.7014 124.495 35.8024 123.534 34.2524V43.3974H119.752ZM123.565 28.6414C123.565 31.4004 125.27 33.2914 127.874 33.2914C130.54 33.2914 132.121 31.3694 132.121 28.6414C132.121 25.9134 130.54 23.9604 127.874 23.9604C125.27 23.9604 123.565 25.8824 123.565 28.6414ZM142.727 36.2984H138.945V13.2344H142.758V22.9684C143.719 21.4804 145.517 20.5194 147.718 20.5194C151.5 20.5194 153.484 22.9064 153.484 26.8744V36.2984H149.702V27.7734C149.702 25.2004 148.431 23.9604 146.509 23.9604C144.122 23.9604 142.727 25.6344 142.727 27.9284V36.2984ZM156.301 28.6104C156.301 23.8364 159.742 20.5504 164.485 20.5504C169.228 20.5504 172.669 23.8364 172.669 28.6104C172.669 33.3844 169.228 36.6704 164.485 36.6704C159.742 36.6704 156.301 33.3844 156.301 28.6104ZM160.083 28.6104C160.083 31.4004 161.881 33.2914 164.485 33.2914C167.089 33.2914 168.887 31.4004 168.887 28.6104C168.887 25.8204 167.089 23.9294 164.485 23.9294C161.881 23.9294 160.083 25.8204 160.083 28.6104Z" fill="#8F909A"/>
</g>
<defs>
<clipPath id="clip0_1837_889">
<rect width="182" height="50" fill="white"/>
</clipPath>
</defs>
</svg>
