<svg width="193" height="51" viewBox="0 0 193 51" fill="none" xmlns="http://www.w3.org/2000/svg">
<path fill-rule="evenodd" clip-rule="evenodd" d="M0.685185 29.2612C0.5 29.2612 0.5 29.2612 0.5 29.2612C2.16667 41.1131 11.9815 50.002 23.8333 50.7427C24.0185 50.7427 24.2037 50.7427 24.5741 50.7427C24.9444 50.7427 25.3148 50.7427 25.6852 50.7427C26.2407 50.7427 26.7963 50.7427 27.3519 50.7427C39.0185 50.002 48.6481 41.1131 50.5 29.2612C50.3148 29.2612 50.3148 29.2612 50.3148 29.2612C48.463 29.2612 46.7963 29.4464 44.9444 29.8168C42.9074 38.8909 34.9444 45.3723 25.5 45.3723C16.2407 45.3723 8.09259 38.8909 6.24074 29.6316C4.38889 29.4464 2.53704 29.2612 0.685185 29.2612Z" fill="#5BD0F4"/>
<path fill-rule="evenodd" clip-rule="evenodd" d="M25.5 0.372314C24.9444 0.372314 24.3889 0.372314 23.8333 0.372314C11.9815 1.29824 2.16667 10.1871 0.5 22.039H0.685185C2.53704 22.039 4.2037 21.8538 6.05556 21.4834C8.09259 12.4094 16.0556 5.92787 25.3148 5.92787C34.5741 5.92787 42.7222 12.4094 44.5741 21.4834C46.2407 21.8538 48.0926 22.039 49.9444 22.039H50.1296C48.6481 10.1871 39.0185 1.29824 27.1667 0.5575C26.9815 0.5575 26.6111 0.5575 26.4259 0.5575C26.0556 0.372314 25.6852 0.372314 25.5 0.372314Z" fill="#5BD0F4"/>
<path fill-rule="evenodd" clip-rule="evenodd" d="M46.0554 25.5575C37.9073 24.4464 30.4999 20.1872 25.4999 13.5205C20.4999 20.1872 13.0925 24.4464 4.94434 25.5575C13.0925 26.6687 20.6851 31.1131 25.4999 37.7798C30.4999 31.1131 37.9073 26.6687 46.0554 25.5575Z" fill="#283D74"/>
<g clip-path="url(#clip0_67_2047)">
<path d="M71.26 37.5V16.56H76.21V37.5H71.26ZM66.46 16.56H81.01V20.61H66.46V16.56ZM66.46 33.45H81.01V37.5H66.46V33.45ZM93.5017 37.86C91.7417 37.86 90.2217 37.51 88.9417 36.81C87.6817 36.11 86.7117 35.11 86.0317 33.81C85.3717 32.51 85.0417 30.96 85.0417 29.16C85.0417 27.32 85.3917 25.75 86.0917 24.45C86.8117 23.15 87.8117 22.16 89.0917 21.48C90.3717 20.8 91.8817 20.46 93.6217 20.46C95.1417 20.46 96.4817 20.73 97.6417 21.27C98.8217 21.81 99.7517 22.57 100.432 23.55C101.132 24.51 101.512 25.66 101.572 27H96.8917C96.7317 26.08 96.3717 25.4 95.8117 24.96C95.2717 24.5 94.5417 24.27 93.6217 24.27C92.8617 24.27 92.1817 24.46 91.5817 24.84C91.0017 25.22 90.5417 25.77 90.2017 26.49C89.8817 27.21 89.7217 28.1 89.7217 29.16C89.7217 30.74 90.0817 31.96 90.8017 32.82C91.5417 33.68 92.4417 34.11 93.5017 34.11C94.1217 34.11 94.6617 34 95.1217 33.78C95.6017 33.56 96.0017 33.25 96.3217 32.85C96.6417 32.43 96.8617 31.96 96.9817 31.44H101.662C101.542 32.74 101.122 33.87 100.402 34.83C99.6817 35.79 98.7317 36.54 97.5517 37.08C96.3717 37.6 95.0217 37.86 93.5017 37.86ZM112.773 37.86C110.993 37.86 109.463 37.51 108.183 36.81C106.903 36.11 105.913 35.11 105.213 33.81C104.533 32.51 104.193 30.96 104.193 29.16C104.193 27.34 104.533 25.79 105.213 24.51C105.913 23.21 106.903 22.21 108.183 21.51C109.463 20.81 110.993 20.46 112.773 20.46C115.453 20.46 117.543 21.23 119.043 22.77C120.563 24.31 121.323 26.44 121.323 29.16C121.323 30.96 120.983 32.51 120.303 33.81C119.623 35.11 118.643 36.11 117.363 36.81C116.083 37.51 114.553 37.86 112.773 37.86ZM112.773 34.08C113.973 34.08 114.913 33.64 115.593 32.76C116.293 31.88 116.643 30.68 116.643 29.16C116.643 27.62 116.293 26.42 115.593 25.56C114.913 24.68 113.973 24.24 112.773 24.24C111.553 24.24 110.593 24.68 109.893 25.56C109.213 26.42 108.873 27.62 108.873 29.16C108.873 30.68 109.213 31.88 109.893 32.76C110.593 33.64 111.553 34.08 112.773 34.08ZM135.555 37.5V27.21C135.555 26.35 135.335 25.66 134.895 25.14C134.455 24.62 133.875 24.36 133.155 24.36C132.335 24.36 131.575 24.64 130.875 25.2C130.195 25.74 129.475 26.68 128.715 28.02L128.055 24.06C128.815 22.76 129.735 21.84 130.815 21.3C131.895 20.74 132.995 20.46 134.115 20.46C135.395 20.46 136.485 20.73 137.385 21.27C138.305 21.81 139.005 22.56 139.485 23.52C139.985 24.48 140.235 25.61 140.235 26.91V37.5H135.555ZM124.425 37.5V20.82H128.955L129.105 23.79V37.5H124.425ZM149.457 37.5V20.82H154.137V37.5H149.457ZM144.057 37.5V33.72H159.597V37.5H144.057ZM146.157 24.6V20.82H151.797V24.6H146.157ZM149.277 18.6V14.22H154.257V18.6H149.277ZM171.549 37.86C169.789 37.86 168.269 37.51 166.989 36.81C165.729 36.11 164.759 35.11 164.079 33.81C163.419 32.51 163.089 30.96 163.089 29.16C163.089 27.32 163.439 25.75 164.139 24.45C164.859 23.15 165.859 22.16 167.139 21.48C168.419 20.8 169.929 20.46 171.669 20.46C173.189 20.46 174.529 20.73 175.689 21.27C176.869 21.81 177.799 22.57 178.479 23.55C179.179 24.51 179.559 25.66 179.619 27H174.939C174.779 26.08 174.419 25.4 173.859 24.96C173.319 24.5 172.589 24.27 171.669 24.27C170.909 24.27 170.229 24.46 169.629 24.84C169.049 25.22 168.589 25.77 168.249 26.49C167.929 27.21 167.769 28.1 167.769 29.16C167.769 30.74 168.129 31.96 168.849 32.82C169.589 33.68 170.489 34.11 171.549 34.11C172.169 34.11 172.709 34 173.169 33.78C173.649 33.56 174.049 33.25 174.369 32.85C174.689 32.43 174.909 31.96 175.029 31.44H179.709C179.589 32.74 179.169 33.87 178.449 34.83C177.729 35.79 176.779 36.54 175.599 37.08C174.419 37.6 173.069 37.86 171.549 37.86Z" fill="#283D74"/>
</g>
<defs>
<clipPath id="clip0_67_2047">
<rect width="127" height="50" fill="white" transform="translate(66 1)"/>
</clipPath>
</defs>
</svg>
