<svg width="193" height="51" viewBox="0 0 193 51" fill="none" xmlns="http://www.w3.org/2000/svg">
<g clip-path="url(#clip0_1837_931)">
<path fill-rule="evenodd" clip-rule="evenodd" d="M0.685185 29.2617C0.5 29.2617 0.5 29.2617 0.5 29.2617C2.16667 41.1136 11.9815 50.0025 23.8333 50.7432C24.0185 50.7432 24.2037 50.7432 24.5741 50.7432C24.9444 50.7432 25.3148 50.7432 25.6852 50.7432C26.2407 50.7432 26.7963 50.7432 27.3519 50.7432C39.0185 50.0025 48.6481 41.1136 50.5 29.2617C50.3148 29.2617 50.3148 29.2617 50.3148 29.2617C48.463 29.2617 46.7963 29.4469 44.9444 29.8173C42.9074 38.8914 34.9444 45.3728 25.5 45.3728C16.2407 45.3728 8.09259 38.8914 6.24074 29.6321C4.38889 29.4469 2.53704 29.2617 0.685185 29.2617Z" fill="#8F909A"/>
<path fill-rule="evenodd" clip-rule="evenodd" d="M25.5 0.371094C24.9444 0.371094 24.3889 0.371094 23.8333 0.371094C11.9815 1.29702 2.16667 10.1859 0.5 22.0378H0.685185C2.53704 22.0378 4.2037 21.8526 6.05556 21.4822C8.09259 12.4082 16.0556 5.92665 25.3148 5.92665C34.5741 5.92665 42.7222 12.4082 44.5741 21.4822C46.2407 21.8526 48.0926 22.0378 49.9444 22.0378H50.1296C48.6481 10.1859 39.0185 1.29702 27.1667 0.55628C26.9815 0.55628 26.6111 0.55628 26.4259 0.55628C26.0556 0.371094 25.6852 0.371094 25.5 0.371094Z" fill="#8F909A"/>
<path fill-rule="evenodd" clip-rule="evenodd" d="M46.0564 25.5565C37.9083 24.4454 30.5009 20.1862 25.5009 13.5195C20.5009 20.1862 13.0935 24.4454 4.94531 25.5565C13.0935 26.6677 20.6861 31.1121 25.5009 37.7788C30.5009 31.1121 37.9083 26.6677 46.0564 25.5565Z" fill="#8F909A"/>
<mask id="mask0_1837_931" style="mask-type:luminance" maskUnits="userSpaceOnUse" x="66" y="1" width="127" height="50">
<path d="M193 1H66V51H193V1Z" fill="white"/>
</mask>
<g mask="url(#mask0_1837_931)">
<path d="M71.2609 37.4987V16.5587H76.2109V37.4987H71.2609ZM66.4609 16.5587H81.0109V20.6088H66.4609V16.5587ZM66.4609 33.4487H81.0109V37.4987H66.4609V33.4487ZM93.5026 37.8587C91.7426 37.8587 90.2226 37.5088 88.9426 36.8088C87.6826 36.1088 86.7126 35.1088 86.0326 33.8088C85.3726 32.5088 85.0426 30.9587 85.0426 29.1587C85.0426 27.3187 85.3926 25.7488 86.0926 24.4488C86.8126 23.1488 87.8126 22.1587 89.0926 21.4787C90.3726 20.7987 91.8826 20.4587 93.6226 20.4587C95.1426 20.4587 96.4826 20.7288 97.6426 21.2688C98.8226 21.8088 99.7526 22.5687 100.433 23.5487C101.133 24.5087 101.513 25.6587 101.573 26.9987H96.8926C96.7326 26.0787 96.3726 25.3987 95.8126 24.9587C95.2726 24.4987 94.5426 24.2688 93.6226 24.2688C92.8626 24.2688 92.1826 24.4587 91.5826 24.8387C91.0026 25.2187 90.5426 25.7687 90.2026 26.4887C89.8826 27.2087 89.7226 28.0987 89.7226 29.1587C89.7226 30.7387 90.0826 31.9587 90.8026 32.8187C91.5426 33.6787 92.4426 34.1087 93.5026 34.1087C94.1226 34.1087 94.6626 33.9987 95.1226 33.7787C95.6026 33.5587 96.0026 33.2487 96.3226 32.8487C96.6426 32.4287 96.8626 31.9588 96.9826 31.4388H101.663C101.543 32.7388 101.123 33.8688 100.403 34.8288C99.6826 35.7888 98.7326 36.5388 97.5526 37.0788C96.3726 37.5988 95.0226 37.8587 93.5026 37.8587ZM112.774 37.8587C110.994 37.8587 109.464 37.5088 108.184 36.8088C106.904 36.1088 105.914 35.1088 105.214 33.8088C104.534 32.5088 104.194 30.9587 104.194 29.1587C104.194 27.3387 104.534 25.7887 105.214 24.5087C105.914 23.2088 106.904 22.2087 108.184 21.5087C109.464 20.8087 110.994 20.4587 112.774 20.4587C115.454 20.4587 117.544 21.2288 119.044 22.7688C120.564 24.3088 121.324 26.4387 121.324 29.1587C121.324 30.9587 120.984 32.5088 120.304 33.8088C119.624 35.1088 118.644 36.1088 117.364 36.8088C116.084 37.5088 114.554 37.8587 112.774 37.8587ZM112.774 34.0788C113.974 34.0788 114.914 33.6387 115.594 32.7587C116.294 31.8787 116.644 30.6787 116.644 29.1587C116.644 27.6187 116.294 26.4187 115.594 25.5587C114.914 24.6787 113.974 24.2387 112.774 24.2387C111.554 24.2387 110.594 24.6787 109.894 25.5587C109.214 26.4187 108.874 27.6187 108.874 29.1587C108.874 30.6787 109.214 31.8787 109.894 32.7587C110.594 33.6387 111.554 34.0788 112.774 34.0788ZM135.556 37.4987V27.2087C135.556 26.3487 135.336 25.6587 134.896 25.1387C134.456 24.6187 133.876 24.3588 133.156 24.3588C132.336 24.3588 131.576 24.6388 130.876 25.1988C130.196 25.7388 129.476 26.6788 128.716 28.0188L128.056 24.0587C128.816 22.7587 129.736 21.8387 130.816 21.2987C131.896 20.7387 132.996 20.4587 134.116 20.4587C135.396 20.4587 136.486 20.7288 137.386 21.2688C138.306 21.8088 139.006 22.5588 139.486 23.5188C139.986 24.4788 140.236 25.6087 140.236 26.9087V37.4987H135.556ZM124.426 37.4987V20.8187H128.956L129.106 23.7888V37.4987H124.426ZM149.458 37.4987V20.8187H154.138V37.4987H149.458ZM144.058 37.4987V33.7188H159.598V37.4987H144.058ZM146.158 24.5988V20.8187H151.798V24.5988H146.158ZM149.278 18.5988V14.2188H154.258V18.5988H149.278ZM171.55 37.8587C169.79 37.8587 168.27 37.5088 166.99 36.8088C165.73 36.1088 164.76 35.1088 164.08 33.8088C163.42 32.5088 163.09 30.9587 163.09 29.1587C163.09 27.3187 163.44 25.7488 164.14 24.4488C164.86 23.1488 165.86 22.1587 167.14 21.4787C168.42 20.7987 169.93 20.4587 171.67 20.4587C173.19 20.4587 174.53 20.7288 175.69 21.2688C176.87 21.8088 177.8 22.5687 178.48 23.5487C179.18 24.5087 179.56 25.6587 179.62 26.9987H174.94C174.78 26.0787 174.42 25.3987 173.86 24.9587C173.32 24.4987 172.59 24.2688 171.67 24.2688C170.91 24.2688 170.23 24.4587 169.63 24.8387C169.05 25.2187 168.59 25.7687 168.25 26.4887C167.93 27.2087 167.77 28.0987 167.77 29.1587C167.77 30.7387 168.13 31.9587 168.85 32.8187C169.59 33.6787 170.49 34.1087 171.55 34.1087C172.17 34.1087 172.71 33.9987 173.17 33.7787C173.65 33.5587 174.05 33.2487 174.37 32.8487C174.69 32.4287 174.91 31.9588 175.03 31.4388H179.71C179.59 32.7388 179.17 33.8688 178.45 34.8288C177.73 35.7888 176.78 36.5388 175.6 37.0788C174.42 37.5988 173.07 37.8587 171.55 37.8587Z" fill="#8F909A"/>
</g>
</g>
<defs>
<clipPath id="clip0_1837_931">
<rect width="193" height="51" fill="white"/>
</clipPath>
</defs>
</svg>
