<svg width="192" height="50" viewBox="0 0 192 50" fill="none" xmlns="http://www.w3.org/2000/svg">
<g clip-path="url(#clip0_1837_916)">
<path fill-rule="evenodd" clip-rule="evenodd" d="M36.6795 50L50 0L0 13.3205L11.1973 24.5177L39.3826 10.6179L25.2899 38.6102L36.6795 50Z" fill="#8F909A"/>
<path fill-rule="evenodd" clip-rule="evenodd" d="M39.3845 10.6172L25.2918 38.6095H11.1992V24.5168L39.3845 10.6172Z" fill="#8F909A"/>
<mask id="mask0_1837_916" style="mask-type:luminance" maskUnits="userSpaceOnUse" x="65" y="0" width="127" height="50">
<path d="M192 0H65V50H192V0Z" fill="white"/>
</mask>
<g mask="url(#mask0_1837_916)">
<path d="M76.3213 36.6842C74.764 36.6842 73.3133 36.4069 71.9693 35.8522C70.6466 35.2762 69.484 34.4869 68.4813 33.4842C67.4786 32.4816 66.6893 31.3082 66.1133 29.9642C65.5586 28.5989 65.2812 27.1269 65.2812 25.5482C65.2812 23.9909 65.5586 22.5509 66.1133 21.2282C66.6893 19.8842 67.4786 18.7109 68.4813 17.7082C69.484 16.7056 70.6466 15.9269 71.9693 15.3722C73.3133 14.7962 74.764 14.5082 76.3213 14.5082C77.8786 14.5082 79.3186 14.7962 80.6413 15.3722C81.964 15.9269 83.1265 16.7056 84.1292 17.7082C85.1319 18.7109 85.9105 19.8842 86.4652 21.2282C87.0199 22.5509 87.2972 23.9909 87.2972 25.5482C87.2972 27.1269 87.0199 28.5989 86.4652 29.9642C85.9105 31.3082 85.1319 32.4816 84.1292 33.4842C83.1265 34.4869 81.964 35.2762 80.6413 35.8522C79.3186 36.4069 77.8786 36.6842 76.3213 36.6842ZM76.3213 33.5802C77.3666 33.5802 78.348 33.3776 79.2653 32.9722C80.204 32.5456 81.0252 31.9696 81.7292 31.2442C82.4332 30.5189 82.9773 29.6762 83.3613 28.7162C83.7453 27.7349 83.9372 26.6789 83.9372 25.5482C83.9372 24.4389 83.7453 23.4042 83.3613 22.4442C82.9773 21.4842 82.4332 20.6416 81.7292 19.9162C81.0252 19.1909 80.2145 18.6256 79.2972 18.2202C78.3799 17.8149 77.388 17.6122 76.3213 17.6122C75.2546 17.6122 74.2519 17.8149 73.3132 18.2202C72.3745 18.6256 71.5533 19.1909 70.8493 19.9162C70.1666 20.6416 69.6226 21.4842 69.2173 22.4442C68.8333 23.4042 68.6413 24.4389 68.6413 25.5482C68.6413 26.6789 68.8333 27.7349 69.2173 28.7162C69.6226 29.6762 70.1666 30.5189 70.8493 31.2442C71.5533 31.9696 72.3745 32.5456 73.3132 32.9722C74.2519 33.3776 75.2546 33.5802 76.3213 33.5802ZM94.035 43.5002H90.8671V28.4282C90.8671 26.8709 91.2296 25.4736 91.955 24.2362C92.7016 22.9989 93.7044 22.0282 94.9631 21.3242C96.2217 20.5989 97.6403 20.2362 99.219 20.2362C100.797 20.2362 102.216 20.6096 103.475 21.3562C104.733 22.0816 105.725 23.0736 106.451 24.3322C107.176 25.5696 107.539 26.9349 107.539 28.4282C107.539 30.0069 107.187 31.4256 106.483 32.6842C105.779 33.9216 104.808 34.9029 103.571 35.6282C102.355 36.3322 100.947 36.6842 99.3471 36.6842C98.0884 36.6842 96.9257 36.3856 95.8591 35.7882C94.8137 35.1909 93.9711 34.4122 93.3311 33.4522C92.7124 32.4709 92.4031 31.4042 92.4031 30.2522L94.035 31.0842V43.5002ZM99.219 33.7082C100.2 33.7082 101.075 33.4736 101.843 33.0042C102.632 32.5136 103.251 31.8736 103.699 31.0842C104.147 30.2736 104.371 29.3989 104.371 28.4602C104.371 27.5002 104.147 26.6256 103.699 25.8362C103.251 25.0469 102.632 24.4176 101.843 23.9482C101.075 23.4789 100.2 23.2442 99.219 23.2442C98.2376 23.2442 97.3523 23.4789 96.563 23.9482C95.795 24.4176 95.1764 25.0469 94.7071 25.8362C94.2591 26.6256 94.035 27.5002 94.035 28.4602C94.035 29.3989 94.2591 30.2736 94.7071 31.0842C95.1764 31.8736 95.795 32.5136 96.563 33.0042C97.3523 33.4736 98.2376 33.7082 99.219 33.7082ZM118.253 36.7162C116.973 36.7162 115.885 36.4602 114.989 35.9482C114.093 35.4362 113.41 34.7322 112.941 33.8362C112.493 32.9189 112.269 31.8629 112.269 30.6682V16.5562H115.437V30.5722C115.437 31.5962 115.714 32.3962 116.269 32.9722C116.845 33.5482 117.602 33.8362 118.541 33.8362C119.053 33.8362 119.565 33.7509 120.077 33.5802C120.61 33.4096 121.069 33.1856 121.453 32.9082V35.8202C121.047 36.0762 120.557 36.2896 119.981 36.4602C119.405 36.6309 118.829 36.7162 118.253 36.7162ZM121.453 23.3722H109.165V20.6202H121.453V23.3722ZM126.163 20.6202H129.331V36.3002H126.163V20.6202ZM127.731 17.5162C127.368 17.5162 127.027 17.4309 126.707 17.2602C126.387 17.0682 126.131 16.8122 125.939 16.4922C125.747 16.1722 125.651 15.8202 125.651 15.4362C125.651 15.0522 125.747 14.7002 125.939 14.3802C126.131 14.0602 126.387 13.8042 126.707 13.6122C127.027 13.4202 127.368 13.3242 127.731 13.3242C128.115 13.3242 128.456 13.4202 128.755 13.6122C129.075 13.8042 129.32 14.0602 129.491 14.3802C129.683 14.7002 129.779 15.0522 129.779 15.4362C129.779 15.8202 129.683 16.1722 129.491 16.4922C129.32 16.8122 129.075 17.0682 128.755 17.2602C128.456 17.4309 128.115 17.5162 127.731 17.5162ZM153.948 20.1722C155.526 20.1722 156.849 20.5242 157.916 21.2282C159.004 21.9322 159.825 22.8816 160.38 24.0762C160.956 25.2709 161.244 26.5936 161.244 28.0442V36.3002H158.076V28.5562C158.076 27.5962 157.916 26.7109 157.596 25.9002C157.297 25.0896 156.817 24.4389 156.156 23.9482C155.516 23.4576 154.705 23.2122 153.724 23.2122C152.785 23.2122 151.996 23.4576 151.356 23.9482C150.716 24.4176 150.236 25.0576 149.916 25.8682C149.596 26.6576 149.436 27.5322 149.436 28.4922V36.3002H146.268V28.4922C146.268 27.5322 146.108 26.6576 145.788 25.8682C145.489 25.0576 145.009 24.4176 144.348 23.9482C143.708 23.4576 142.897 23.2122 141.916 23.2122C140.934 23.2122 140.124 23.4576 139.484 23.9482C138.865 24.4389 138.406 25.0896 138.108 25.9002C137.809 26.7109 137.66 27.5962 137.66 28.5562V36.3002H134.492V28.0762C134.492 26.6042 134.758 25.2709 135.292 24.0762C135.846 22.8816 136.657 21.9322 137.724 21.2282C138.812 20.5242 140.134 20.1722 141.692 20.1722C143.014 20.1722 144.156 20.4282 145.116 20.9402C146.097 21.4522 146.854 22.1562 147.388 23.0522C147.942 23.9482 148.23 24.9829 148.252 26.1562H147.548C147.59 24.9829 147.878 23.9482 148.412 23.0522C148.966 22.1562 149.713 21.4522 150.652 20.9402C151.612 20.4282 152.71 20.1722 153.948 20.1722ZM172.653 36.6842C171.138 36.6842 169.784 36.3109 168.589 35.5642C167.416 34.8176 166.488 33.8256 165.805 32.5882C165.122 31.3296 164.781 29.9429 164.781 28.4282C164.781 26.9349 165.144 25.5696 165.869 24.3322C166.616 23.0736 167.618 22.0816 168.877 21.3562C170.136 20.6096 171.554 20.2362 173.133 20.2362C174.712 20.2362 176.13 20.5989 177.389 21.3242C178.648 22.0282 179.64 22.9989 180.365 24.2362C181.112 25.4736 181.485 26.8709 181.485 28.4282V36.3002H178.477V30.4442L179.565 29.6122C179.565 30.9349 179.266 32.1296 178.669 33.1962C178.093 34.2629 177.282 35.1162 176.237 35.7562C175.213 36.3749 174.018 36.6842 172.653 36.6842ZM173.133 33.6762C174.114 33.6762 175 33.4416 175.789 32.9722C176.578 32.5029 177.197 31.8736 177.645 31.0842C178.093 30.2736 178.317 29.3989 178.317 28.4602C178.317 27.5002 178.093 26.6256 177.645 25.8362C177.197 25.0469 176.578 24.4176 175.789 23.9482C175 23.4576 174.114 23.2122 173.133 23.2122C172.152 23.2122 171.266 23.4576 170.477 23.9482C169.709 24.4176 169.09 25.0469 168.621 25.8362C168.173 26.6256 167.949 27.5002 167.949 28.4602C167.949 29.3989 168.173 30.2736 168.621 31.0842C169.09 31.8736 169.709 32.5029 170.477 32.9722C171.266 33.4416 172.152 33.6762 173.133 33.6762ZM186.663 13.4202H189.831V36.3002H186.663V13.4202Z" fill="#8F909A"/>
</g>
</g>
<defs>
<clipPath id="clip0_1837_916">
<rect width="192" height="50" fill="white"/>
</clipPath>
</defs>
</svg>
