<svg width="216" height="50" viewBox="0 0 216 50" fill="none" xmlns="http://www.w3.org/2000/svg">
<g clip-path="url(#clip0_1837_940)">
<path fill-rule="evenodd" clip-rule="evenodd" d="M25.1545 1.19922C24.6837 1.19922 24.3071 1.19922 23.8363 1.29338C23.3655 1.29338 22.9888 1.38754 22.518 1.4817C22.1413 1.57587 21.6705 1.67003 21.2939 1.76419C20.9172 1.85835 20.4464 2.04668 20.0698 2.235C19.6931 2.42332 19.3165 2.61165 18.9398 2.79997C18.5632 2.9883 18.1865 3.27078 17.8099 3.45911C17.4333 3.74159 17.1508 3.92991 16.7741 4.2124C16.4916 4.49489 16.115 4.77737 15.8325 5.05986C15.55 5.34234 15.2675 5.71899 14.985 6.00148C13.3005 8.24759 12.6943 10.487 12.1602 13.1578C12.1602 13.4403 12.1602 13.7227 12.1602 14.0994C12.1602 14.5702 12.1602 14.9468 12.2543 15.4177C12.2543 15.8885 12.3485 16.2651 12.4427 16.7359C12.7393 17.9226 12.9727 19.0847 13.6668 20.1258C13.9493 20.1258 14.2317 20.1258 14.5142 20.2199C14.7967 20.2199 14.985 20.3141 15.2675 20.3141C15.55 20.3141 15.7383 20.4082 16.0208 20.4082C16.4916 20.5024 16.9624 20.5966 17.4332 20.7849C17.7157 20.879 17.9041 20.9732 18.1865 21.0674C18.3749 21.1615 18.6574 21.2557 18.8457 21.3499C19.3165 21.5382 19.7873 21.7265 20.1639 22.009C20.2581 22.1032 20.3523 22.1032 20.4464 22.1973C20.6348 22.2915 20.8231 22.3856 20.9172 22.4798L21.0114 22.574C21.1056 22.6681 21.1997 22.6681 21.2939 22.7623C21.3881 22.8564 21.4822 22.9506 21.5764 22.9506C21.6705 23.0448 21.7647 23.1389 21.8589 23.1389C22.0472 23.3273 22.2355 23.4214 22.4238 23.6097C22.8005 23.8922 23.1771 24.2689 23.5538 24.6455C23.9304 25.0222 24.2129 25.3988 24.4954 25.7755C24.5896 25.8696 24.6837 25.9638 24.6837 26.058C24.872 26.3404 25.1545 26.6229 25.3429 26.9996C25.3429 26.9996 25.3429 26.9996 25.3429 27.0937C25.437 27.0937 25.5312 27.0937 25.6253 27.0937C25.7195 27.0937 25.8137 27.0937 25.9078 27.0937C26.0961 27.0937 26.3786 27.0937 26.567 26.9996C26.8494 26.9054 27.2261 26.9054 27.5086 26.8113C27.6027 26.8113 27.6969 26.7171 27.7911 26.7171C27.8852 26.7171 27.9794 26.6229 28.0736 26.6229C28.2619 26.5288 28.4502 26.5288 28.7327 26.4346C28.8268 26.4346 28.921 26.3404 29.0152 26.3404C29.1093 26.3404 29.2035 26.2463 29.2977 26.2463C29.5801 26.1521 29.8626 25.9638 30.1451 25.8696C30.5218 25.6813 30.8984 25.493 31.2751 25.2105C31.6517 25.0222 32.0284 24.7397 32.3108 24.4572C32.6875 24.1747 32.97 23.8922 33.3466 23.6097C33.6291 23.3273 34.0058 23.0448 34.2882 22.6681C34.4766 22.4798 34.5707 22.3856 34.6649 22.1973C34.759 22.1032 34.759 22.009 34.8532 21.9148C34.9474 21.8207 34.9474 21.7265 35.0415 21.6323C35.324 21.2557 35.5123 20.879 35.7007 20.5024C35.889 20.1258 36.0773 19.7491 36.2656 19.3725C36.454 18.9958 36.6423 18.6192 36.7365 18.1484C36.8306 17.7717 37.0189 17.3009 37.1131 16.9242C37.2073 16.5476 37.3014 16.0768 37.3014 15.606C37.3956 15.1352 37.3956 14.7585 37.3956 14.2877C37.3956 14.1935 37.3956 14.0994 37.3956 14.0052C37.3956 13.5344 37.3956 13.1578 37.3014 12.687C37.3014 12.2161 37.2073 11.8395 37.1131 11.3687C37.0189 10.992 36.9248 10.5212 36.8306 10.1446C36.7365 9.76796 36.5481 9.29715 36.3598 8.9205C36.9248 8.73217 36.7365 8.35553 36.5481 7.97888C36.3598 7.60223 36.0773 7.22558 35.889 6.84894C35.6065 6.47229 35.4182 6.1898 35.1357 5.81315C34.8532 5.53067 34.5707 5.15402 34.2882 4.87153C34.0058 4.58905 33.6291 4.30656 33.3466 4.02408C32.97 3.74159 32.6875 3.45911 32.3108 3.27078C31.9342 2.9883 31.5575 2.79997 31.1809 2.61165C30.8042 2.42332 30.4276 2.235 29.9568 2.04668C29.5801 1.85835 29.1093 1.76419 28.7327 1.67003C28.356 1.57587 27.8852 1.4817 27.5086 1.38754C26.9436 1.29338 26.567 1.29338 26.0961 1.19922C25.8137 1.19922 25.5312 1.19922 25.1545 1.19922Z" fill="#8F909A"/>
<path fill-rule="evenodd" clip-rule="evenodd" d="M13.1935 22.1016C12.7227 22.1016 12.3461 22.1015 11.8753 22.1957C11.4045 22.1957 11.0278 22.2899 10.557 22.384C10.0862 22.4782 9.70957 22.5724 9.33293 22.6665C8.95628 22.7607 8.48547 22.949 8.10882 23.1373C7.73217 23.3257 7.35552 23.514 6.97888 23.7023C6.88471 23.7023 6.79055 23.7965 6.69639 23.7965C6.31974 23.9848 5.9431 24.2673 5.56645 24.4556C5.1898 24.7381 4.90731 25.0206 4.53067 25.3031C4.24818 25.5855 3.87153 25.868 3.58905 26.2447C3.30656 26.5272 3.02407 26.9038 2.74159 27.2805C2.55326 27.5629 2.27078 27.9396 2.08245 28.3162C1.89413 28.6929 1.61164 29.0695 1.42332 29.4462C1.235 29.8228 1.04667 30.1995 0.952515 30.6703C0.764191 31.0469 0.670029 31.5177 0.575867 31.8944C0.481705 32.271 0.387543 32.7419 0.293381 33.1185C0.293381 33.4951 0.199219 33.966 0.199219 34.4368C0.199219 34.9076 0.199219 35.2842 0.199219 35.755C0.199219 36.2258 0.293381 36.6025 0.293381 37.0733C0.387543 37.4499 0.481705 37.9208 0.575867 38.2974C0.670029 38.6741 0.858353 39.1449 0.952515 39.5215C1.14083 39.8982 1.235 40.369 1.42332 40.7456C1.51748 41.0281 1.70581 41.3106 1.89413 41.5931C2.08245 41.9697 2.36494 42.3464 2.55326 42.723C2.83575 43.0997 3.11824 43.3822 3.40072 43.7588C3.68321 44.0413 3.96569 44.4179 4.34234 44.7004C4.62483 44.9829 5.00148 45.2654 5.37812 45.5479C5.75477 45.8304 6.03726 46.0187 6.41391 46.3012C6.79055 46.4895 7.1672 46.772 7.54385 46.9603C7.9205 47.1486 8.29714 47.337 8.76795 47.4311C9.1446 47.6194 9.61541 47.7136 9.99206 47.8078C10.3687 47.9019 10.8395 47.9961 11.2161 48.0903C11.5928 48.1844 12.0636 48.1844 12.5344 48.1844C13.0052 48.1844 13.3819 48.1844 13.8527 48.1844C14.3235 48.1844 14.7001 48.0903 15.1709 48.0903C15.6418 47.9961 16.0184 47.9019 16.3951 47.8078C16.7717 47.7136 17.2425 47.5253 17.6192 47.4311C17.9958 47.2428 18.4666 47.1486 18.8433 46.9603C19.1257 46.8661 19.4082 46.6778 19.6907 46.4895C20.0674 46.3012 20.444 46.0187 20.8207 45.8304C21.1973 45.5479 21.4798 45.2654 21.8564 44.9829C22.1389 44.7004 22.5156 44.4179 22.7981 44.0413C23.0806 43.7588 23.363 43.3822 23.6455 43.0055C23.8338 42.723 24.0222 42.4405 24.2105 42.0639C24.1163 41.7814 23.928 41.4989 23.8338 41.2164C23.7397 41.0281 23.6455 40.7456 23.5514 40.5573C23.4572 40.369 23.363 40.0865 23.2689 39.8982C23.0806 39.4274 22.9864 38.9565 22.8922 38.4857C22.7981 38.2032 22.7981 38.0149 22.7039 37.7324C22.7039 37.4499 22.6097 37.2616 22.6097 36.9791C22.5156 36.5083 22.5156 35.9434 22.5156 35.4726C22.5156 35.1901 22.5156 35.0017 22.5156 34.7193C22.5156 34.6251 22.5156 34.4368 22.5156 34.3426C22.5156 34.2484 22.5156 34.0601 22.5156 33.966C22.5156 33.4951 22.6097 32.9302 22.7039 32.4594C22.7981 31.9886 22.8922 31.5177 23.0806 31.0469C23.1747 30.5761 23.363 30.1053 23.5514 29.6345C23.7397 29.1637 23.928 28.6929 24.2105 28.3162C24.2105 28.3162 24.2105 28.3162 24.2105 28.2221C24.0222 27.8454 23.7397 27.4688 23.4572 27.1863C23.363 27.0921 23.363 26.998 23.2689 26.9038C23.0806 26.6213 22.8922 26.433 22.6097 26.1505C22.3273 25.868 21.9506 25.5855 21.6681 25.3031C21.2915 25.0206 21.009 24.7381 20.6323 24.5498C20.2557 24.2673 19.879 24.079 19.5024 23.8906C19.1257 23.7023 18.7491 23.514 18.3725 23.3257C17.9958 23.1373 17.525 23.0432 17.1483 22.8548C16.7717 22.7607 16.3009 22.5724 15.9242 22.5724C15.4534 22.4782 15.0768 22.384 14.606 22.384C14.041 22.1016 13.5702 22.1016 13.1935 22.1016Z" fill="#8F909A"/>
<path fill-rule="evenodd" clip-rule="evenodd" d="M37.769 22.1016C37.5807 22.384 37.4865 22.5724 37.2982 22.8548C37.204 22.949 37.1099 23.0432 37.1099 23.1373C37.0157 23.2315 36.9215 23.3257 36.9215 23.4198C36.7332 23.6081 36.639 23.7965 36.4507 23.9848C36.2624 24.1731 36.0741 24.3614 35.9799 24.5498C35.8858 24.6439 35.7916 24.7381 35.6974 24.8322C35.6033 24.9264 35.5091 25.0206 35.4149 25.1147C35.0383 25.4914 34.6616 25.7739 34.285 26.0564C33.9084 26.3388 33.4375 26.6213 33.0609 26.9038C32.6842 27.1863 32.2134 27.3746 31.7426 27.6571C31.2718 27.8454 30.801 28.0338 30.3302 28.2221C30.236 28.2221 30.1419 28.3162 29.9535 28.3162C29.5769 28.4104 29.2003 28.5046 28.9178 28.5987C28.447 28.6929 27.9761 28.787 27.4112 28.8812C27.1287 28.8812 26.9404 28.9754 26.6579 28.9754C26.5637 28.9754 26.3754 28.9754 26.2812 28.9754C26.1871 28.9754 25.9987 28.9754 25.9046 28.9754H25.8104C25.7163 29.1637 25.6221 29.352 25.5279 29.5403C25.5279 29.6345 25.4338 29.7287 25.4338 29.8228C25.4338 29.917 25.3396 30.0112 25.3396 30.1053C25.1513 30.482 25.0571 30.9528 24.963 31.3294C24.8688 31.7061 24.7746 32.1769 24.6805 32.5535C24.5863 32.9302 24.5863 33.401 24.4922 33.8718C24.4922 34.0601 24.4922 34.3426 24.4922 34.5309C24.4922 34.6251 24.4922 34.7193 24.4922 34.8134C24.4922 34.9076 24.4922 35.0017 24.4922 35.0959C24.4922 35.5667 24.4922 35.9434 24.5863 36.4142C24.6805 36.885 24.6805 37.2616 24.7746 37.7324C24.8688 37.9208 24.8688 38.1091 24.963 38.3916C24.963 38.4857 25.0571 38.5799 25.0571 38.6741C25.0571 38.7682 25.1513 38.8624 25.1513 38.9565C25.1513 39.0507 25.2454 39.1449 25.2454 39.239C25.3396 39.5215 25.4338 39.804 25.6221 40.1806C25.8104 40.5573 25.9987 40.9339 26.1871 41.3106C26.3754 41.6872 26.6579 42.0639 26.8462 42.4405C27.1287 42.8172 27.4112 43.0997 27.6937 43.4763C27.9761 43.7588 28.2586 44.1355 28.6353 44.4179C28.9178 44.7004 29.2944 44.9829 29.5769 45.2654C29.9535 45.5479 30.236 45.7362 30.6127 46.0187C30.7068 46.1128 30.801 46.1128 30.8952 46.207C31.2718 46.3953 31.6485 46.5837 32.0251 46.772C32.4018 46.9603 32.7784 47.1486 33.2492 47.2428C33.6259 47.337 34.0967 47.5253 34.4733 47.6194C34.85 47.7136 35.3208 47.8078 35.7916 47.8078C36.2624 47.8078 36.639 47.9019 37.1099 47.9019C37.5807 47.9019 37.9573 47.9019 38.4281 47.9019C38.8989 47.9019 39.2756 47.8078 39.7464 47.7136C40.123 47.6194 40.5938 47.5253 40.9705 47.4311C41.3471 47.337 41.818 47.1486 42.1946 47.0545C42.5712 46.8661 42.9479 46.6778 43.4187 46.4895C43.7954 46.3012 44.172 46.1128 44.5486 45.8304C44.9253 45.5479 45.3019 45.3596 45.5844 45.0771C45.9611 44.7946 46.2436 44.5121 46.5261 44.2296C46.8085 43.9471 47.091 43.5705 47.3735 43.288C47.656 42.9113 47.9385 42.6289 48.1268 42.2522C48.3151 41.9697 48.5035 41.7814 48.5976 41.4989C48.7859 41.1223 48.9743 40.7456 49.1626 40.369C49.3509 39.9923 49.5392 39.6157 49.6334 39.1449C49.7276 38.7682 49.9159 38.2974 50.01 37.9208C50.1042 37.5441 50.1984 37.0733 50.1984 36.6025C50.2925 36.1317 50.2925 35.755 50.2925 35.2842C50.2925 34.8134 50.2925 34.4368 50.2925 33.966C50.2925 33.4951 50.1984 33.1185 50.1042 32.6477C50.01 32.271 49.9159 31.8002 49.8217 31.4236C49.7276 31.0469 49.5392 30.5761 49.4451 30.1995C49.2567 29.8228 49.0684 29.4462 48.8801 28.9754C48.6918 28.5987 48.5035 28.2221 48.221 27.8454C47.9385 27.4688 47.7502 27.0921 47.4677 26.8096C47.1852 26.433 46.9027 26.1505 46.6202 25.868C46.3377 25.5855 45.9611 25.3031 45.6786 25.0206C45.3019 24.7381 45.0195 24.4556 44.6428 24.2673C44.3603 24.079 44.172 23.8906 43.8895 23.7965C43.5129 23.6081 43.1362 23.4198 42.7596 23.2315C42.3829 23.0432 42.0063 22.8548 41.5355 22.7607C41.1588 22.6665 40.688 22.4782 40.3114 22.384C39.9347 22.2899 39.4639 22.1957 38.9931 22.1957C38.4281 22.1015 38.1456 22.1016 37.769 22.1016Z" fill="#8F909A"/>
<mask id="mask0_1837_940" style="mask-type:luminance" maskUnits="userSpaceOnUse" x="65" y="0" width="151" height="50">
<path d="M216 0H65V50H216V0Z" fill="white"/>
</mask>
<g mask="url(#mask0_1837_940)">
<path d="M82.6437 36.4982H73.4007L65.0938 13.5272H75.1557L81.1618 31.2722L87.9477 13.5272H91.4577L82.6437 36.4982ZM103.543 36.8882C97.1468 36.8882 91.3748 34.1972 91.3748 27.3722C91.3748 20.5082 97.1468 17.6222 103.543 17.6222C109.9 17.6222 115.672 19.4552 115.672 25.7732C115.672 26.3582 115.633 26.9042 115.555 27.4892H100.891C100.852 28.1132 100.852 28.6982 100.852 29.2052C100.852 33.1442 101.632 34.0802 103.543 34.0802C105.337 34.0802 105.883 32.9882 105.883 31.0382C105.883 30.7652 105.844 30.4922 105.844 30.1802H115.321C115.321 30.3362 115.36 30.4922 115.36 30.6482C115.36 34.9772 110.017 36.8882 103.543 36.8882ZM100.93 25.1102H105.961C106 24.7592 106 24.4082 106 24.0962C106 21.6002 105.064 20.5082 103.426 20.5082C101.866 20.5082 100.891 21.6002 100.891 24.1352C100.891 24.4472 100.891 24.7592 100.93 25.1102ZM129.932 36.8882C122.054 36.8882 117.959 33.6122 117.959 27.2552C117.959 20.9372 122.054 17.6222 129.932 17.6222C137.771 17.6222 141.905 19.7282 141.905 23.7452C141.905 24.0182 141.866 24.2912 141.827 24.6032H132.428C132.467 24.1352 132.506 23.7452 132.506 23.3552C132.506 21.4442 131.453 20.4692 130.127 20.4692C128.411 20.4692 127.319 21.8732 127.319 27.2552C127.319 32.6762 128.411 34.0802 130.127 34.0802C131.453 34.0802 132.506 33.8072 132.506 31.0772C132.506 30.5312 132.467 29.8682 132.428 29.1272H141.827C141.866 29.5562 141.905 29.9852 141.905 30.3362C141.905 34.6652 137.771 36.8882 129.932 36.8882ZM153.754 36.8882C149.152 36.8882 146.344 35.3282 146.344 31.5842V20.9762H144.238V18.0122H146.344V14.3072L155.119 13.4492V18.0122H160.072V20.9762H155.119V31.2722C155.119 32.5202 155.782 33.1052 156.874 33.1052C157.849 33.1052 158.473 32.5982 159.058 31.6622L160.852 33.0662C159.526 35.4062 157.498 36.8882 153.754 36.8882ZM172.701 36.4982H163.926V18.0122H170.127C170.985 18.3632 172.038 19.5332 172.389 21.6002C173.637 18.9482 175.665 17.6222 178.785 17.6222C183.153 17.6222 186.117 20.5082 186.117 24.5642C186.117 25.8122 185.844 27.2162 185.22 28.4252H177.03C177.225 27.4892 177.264 26.5922 177.264 25.9292C177.264 23.6672 176.562 22.5752 175.041 22.5752C173.871 22.5752 172.701 23.4722 172.701 26.0462V36.4982ZM195.63 36.8882C191.067 36.8882 188.61 34.8602 188.61 32.1302C188.61 29.2832 190.287 28.0742 197.346 26.2412C201.324 25.1882 202.065 24.3302 202.065 22.5362C202.065 21.2102 201.324 20.5082 200.31 20.5082C199.257 20.5082 198.555 21.2492 198.555 22.8482C198.555 23.1602 198.594 23.5502 198.672 23.9012H189.234C189.195 23.6282 189.156 23.3552 189.156 23.1212C189.156 20.1572 192.276 17.6222 200.193 17.6222C207.408 17.6222 210.84 20.3132 210.84 25.6952V31.6232C210.84 32.4422 211.152 32.8322 211.776 32.8322C212.322 32.8322 212.712 32.5592 213.024 31.9742L214.779 33.2222C213.687 35.4062 211.62 36.8882 208.344 36.8882C205.341 36.8882 203.625 35.7962 202.728 34.1582C201.402 35.8742 199.335 36.8882 195.63 36.8882ZM199.842 33.3782C201.012 33.3782 202.065 32.4422 202.065 30.3362V26.9822C201.48 27.6062 201.012 27.8792 200.037 28.3862C198.828 29.0102 198.048 29.7122 198.048 31.2722C198.048 32.5592 198.672 33.3782 199.842 33.3782Z" fill="#8F909A"/>
</g>
</g>
<defs>
<clipPath id="clip0_1837_940">
<rect width="216" height="50" fill="white"/>
</clipPath>
</defs>
</svg>
