<svg width="216" height="50" viewBox="0 0 216 50" fill="none" xmlns="http://www.w3.org/2000/svg">
<path fill-rule="evenodd" clip-rule="evenodd" d="M25.1535 1.198C24.6827 1.198 24.3061 1.198 23.8353 1.29216C23.3645 1.29216 22.9878 1.38632 22.517 1.48048C22.1403 1.57465 21.6695 1.66881 21.2929 1.76297C20.9162 1.85713 20.4454 2.04546 20.0688 2.23378C19.6921 2.4221 19.3155 2.61043 18.9388 2.79875C18.5622 2.98708 18.1855 3.26956 17.8089 3.45789C17.4323 3.74037 17.1498 3.92869 16.7731 4.21118C16.4906 4.49367 16.114 4.77615 15.8315 5.05864C15.549 5.34112 15.2665 5.71777 14.984 6.00026C13.2995 8.24637 12.6933 10.4858 12.1592 13.1566C12.1592 13.4391 12.1592 13.7215 12.1592 14.0982C12.1592 14.569 12.1592 14.9456 12.2533 15.4165C12.2533 15.8873 12.3475 16.2639 12.4417 16.7347C12.7383 17.9214 12.9717 19.0835 13.6658 20.1246C13.9483 20.1246 14.2307 20.1246 14.5132 20.2187C14.7957 20.2187 14.984 20.3129 15.2665 20.3129C15.549 20.3129 15.7373 20.407 16.0198 20.407C16.4906 20.5012 16.9614 20.5954 17.4322 20.7837C17.7147 20.8778 17.9031 20.972 18.1855 21.0662C18.3739 21.1603 18.6564 21.2545 18.8447 21.3487C19.3155 21.537 19.7863 21.7253 20.1629 22.0078C20.2571 22.102 20.3513 22.102 20.4454 22.1961C20.6338 22.2903 20.8221 22.3844 20.9162 22.4786L21.0104 22.5728C21.1046 22.6669 21.1987 22.6669 21.2929 22.7611C21.3871 22.8552 21.4812 22.9494 21.5754 22.9494C21.6695 23.0436 21.7637 23.1377 21.8579 23.1377C22.0462 23.3261 22.2345 23.4202 22.4228 23.6085C22.7995 23.891 23.1761 24.2677 23.5528 24.6443C23.9294 25.021 24.2119 25.3976 24.4944 25.7743C24.5886 25.8684 24.6827 25.9626 24.6827 26.0568C24.871 26.3392 25.1535 26.6217 25.3419 26.9984C25.3419 26.9984 25.3419 26.9984 25.3419 27.0925C25.436 27.0925 25.5302 27.0925 25.6243 27.0925C25.7185 27.0925 25.8127 27.0925 25.9068 27.0925C26.0951 27.0925 26.3776 27.0925 26.566 26.9984C26.8484 26.9042 27.2251 26.9042 27.5076 26.8101C27.6017 26.8101 27.6959 26.7159 27.7901 26.7159C27.8842 26.7159 27.9784 26.6217 28.0726 26.6217C28.2609 26.5276 28.4492 26.5276 28.7317 26.4334C28.8258 26.4334 28.92 26.3392 29.0142 26.3392C29.1083 26.3392 29.2025 26.2451 29.2967 26.2451C29.5791 26.1509 29.8616 25.9626 30.1441 25.8684C30.5208 25.6801 30.8974 25.4918 31.2741 25.2093C31.6507 25.021 32.0274 24.7385 32.3098 24.456C32.6865 24.1735 32.969 23.891 33.3456 23.6085C33.6281 23.3261 34.0048 23.0436 34.2872 22.6669C34.4756 22.4786 34.5697 22.3844 34.6639 22.1961C34.758 22.102 34.758 22.0078 34.8522 21.9136C34.9464 21.8195 34.9464 21.7253 35.0405 21.6311C35.323 21.2545 35.5113 20.8778 35.6997 20.5012C35.888 20.1246 36.0763 19.7479 36.2646 19.3713C36.453 18.9946 36.6413 18.618 36.7355 18.1472C36.8296 17.7705 37.0179 17.2997 37.1121 16.923C37.2063 16.5464 37.3004 16.0756 37.3004 15.6048C37.3946 15.134 37.3946 14.7573 37.3946 14.2865C37.3946 14.1923 37.3946 14.0982 37.3946 14.004C37.3946 13.5332 37.3946 13.1566 37.3004 12.6858C37.3004 12.2149 37.2063 11.8383 37.1121 11.3675C37.0179 10.9908 36.9238 10.52 36.8296 10.1434C36.7355 9.76674 36.5471 9.29593 36.3588 8.91928C36.9238 8.73095 36.7355 8.35431 36.5471 7.97766C36.3588 7.60101 36.0763 7.22436 35.888 6.84772C35.6055 6.47107 35.4172 6.18858 35.1347 5.81193C34.8522 5.52945 34.5697 5.1528 34.2872 4.87031C34.0048 4.58783 33.6281 4.30534 33.3456 4.02286C32.969 3.74037 32.6865 3.45789 32.3098 3.26956C31.9332 2.98708 31.5565 2.79875 31.1799 2.61043C30.8032 2.4221 30.4266 2.23378 29.9558 2.04546C29.5791 1.85713 29.1083 1.76297 28.7317 1.66881C28.355 1.57465 27.8842 1.48048 27.5076 1.38632C26.9426 1.29216 26.566 1.29216 26.0951 1.198C25.8127 1.198 25.5302 1.198 25.1535 1.198Z" fill="#FF8124"/>
<path fill-rule="evenodd" clip-rule="evenodd" d="M13.1945 22.1021C12.7237 22.1021 12.3471 22.102 11.8763 22.1962C11.4055 22.1962 11.0288 22.2904 10.558 22.3845C10.0872 22.4787 9.71055 22.5729 9.33391 22.667C8.95726 22.7612 8.48645 22.9495 8.1098 23.1378C7.73315 23.3262 7.3565 23.5145 6.97986 23.7028C6.88569 23.7028 6.79153 23.797 6.69737 23.797C6.32072 23.9853 5.94408 24.2678 5.56743 24.4561C5.19078 24.7386 4.90829 25.0211 4.53165 25.3036C4.24916 25.586 3.87251 25.8685 3.59003 26.2452C3.30754 26.5277 3.02505 26.9043 2.74257 27.281C2.55424 27.5634 2.27176 27.9401 2.08343 28.3167C1.89511 28.6934 1.61262 29.07 1.4243 29.4467C1.23598 29.8233 1.04765 30.2 0.953491 30.6708C0.765167 31.0474 0.671005 31.5182 0.576843 31.8949C0.482681 32.2715 0.388519 32.7424 0.294357 33.119C0.294357 33.4956 0.200195 33.9665 0.200195 34.4373C0.200195 34.9081 0.200195 35.2847 0.200195 35.7555C0.200195 36.2263 0.294357 36.603 0.294357 37.0738C0.388519 37.4504 0.482681 37.9213 0.576843 38.2979C0.671005 38.6746 0.859329 39.1454 0.953491 39.522C1.14181 39.8987 1.23598 40.3695 1.4243 40.7461C1.51846 41.0286 1.70679 41.3111 1.89511 41.5936C2.08343 41.9702 2.36592 42.3469 2.55424 42.7235C2.83673 43.1002 3.11922 43.3827 3.4017 43.7593C3.68419 44.0418 3.96667 44.4184 4.34332 44.7009C4.62581 44.9834 5.00246 45.2659 5.3791 45.5484C5.75575 45.8309 6.03824 46.0192 6.41489 46.3017C6.79153 46.49 7.16818 46.7725 7.54483 46.9608C7.92148 47.1491 8.29812 47.3375 8.76893 47.4316C9.14558 47.6199 9.61639 47.7141 9.99304 47.8083C10.3697 47.9024 10.8405 47.9966 11.2171 48.0908C11.5938 48.1849 12.0646 48.1849 12.5354 48.1849C13.0062 48.1849 13.3829 48.1849 13.8537 48.1849C14.3245 48.1849 14.7011 48.0908 15.1719 48.0908C15.6428 47.9966 16.0194 47.9024 16.3961 47.8083C16.7727 47.7141 17.2435 47.5258 17.6202 47.4316C17.9968 47.2433 18.4676 47.1491 18.8443 46.9608C19.1267 46.8666 19.4092 46.6783 19.6917 46.49C20.0684 46.3017 20.445 46.0192 20.8217 45.8309C21.1983 45.5484 21.4808 45.2659 21.8574 44.9834C22.1399 44.7009 22.5166 44.4184 22.7991 44.0418C23.0816 43.7593 23.364 43.3827 23.6465 43.006C23.8348 42.7235 24.0232 42.441 24.2115 42.0644C24.1173 41.7819 23.929 41.4994 23.8348 41.2169C23.7407 41.0286 23.6465 40.7461 23.5524 40.5578C23.4582 40.3695 23.364 40.087 23.2699 39.8987C23.0816 39.4279 22.9874 38.957 22.8932 38.4862C22.7991 38.2037 22.7991 38.0154 22.7049 37.7329C22.7049 37.4504 22.6107 37.2621 22.6107 36.9796C22.5166 36.5088 22.5166 35.9439 22.5166 35.4731C22.5166 35.1906 22.5166 35.0022 22.5166 34.7198C22.5166 34.6256 22.5166 34.4373 22.5166 34.3431C22.5166 34.2489 22.5166 34.0606 22.5166 33.9665C22.5166 33.4956 22.6107 32.9307 22.7049 32.4599C22.7991 31.9891 22.8932 31.5182 23.0816 31.0474C23.1757 30.5766 23.364 30.1058 23.5524 29.635C23.7407 29.1642 23.929 28.6934 24.2115 28.3167C24.2115 28.3167 24.2115 28.3167 24.2115 28.2226C24.0232 27.8459 23.7407 27.4693 23.4582 27.1868C23.364 27.0926 23.364 26.9985 23.2699 26.9043C23.0816 26.6218 22.8932 26.4335 22.6107 26.151C22.3283 25.8685 21.9516 25.586 21.6691 25.3036C21.2925 25.0211 21.01 24.7386 20.6333 24.5503C20.2567 24.2678 19.88 24.0795 19.5034 23.8911C19.1267 23.7028 18.7501 23.5145 18.3735 23.3262C17.9968 23.1378 17.526 23.0437 17.1493 22.8553C16.7727 22.7612 16.3019 22.5729 15.9252 22.5729C15.4544 22.4787 15.0778 22.3845 14.607 22.3845C14.042 22.1021 13.5712 22.1021 13.1945 22.1021Z" fill="#61459C"/>
<path fill-rule="evenodd" clip-rule="evenodd" d="M37.7705 22.1021C37.5822 22.3845 37.488 22.5729 37.2997 22.8553C37.2055 22.9495 37.1114 23.0437 37.1114 23.1378C37.0172 23.232 36.923 23.3262 36.923 23.4203C36.7347 23.6086 36.6405 23.797 36.4522 23.9853C36.2639 24.1736 36.0756 24.3619 35.9814 24.5503C35.8873 24.6444 35.7931 24.7386 35.6989 24.8327C35.6048 24.9269 35.5106 25.0211 35.4164 25.1152C35.0398 25.4919 34.6631 25.7744 34.2865 26.0569C33.9099 26.3393 33.439 26.6218 33.0624 26.9043C32.6857 27.1868 32.2149 27.3751 31.7441 27.6576C31.2733 27.8459 30.8025 28.0343 30.3317 28.2226C30.2375 28.2226 30.1434 28.3167 29.955 28.3167C29.5784 28.4109 29.2018 28.5051 28.9193 28.5992C28.4485 28.6934 27.9776 28.7875 27.4127 28.8817C27.1302 28.8817 26.9419 28.9759 26.6594 28.9759C26.5652 28.9759 26.3769 28.9759 26.2827 28.9759C26.1886 28.9759 26.0002 28.9759 25.9061 28.9759H25.8119C25.7178 29.1642 25.6236 29.3525 25.5294 29.5408C25.5294 29.635 25.4353 29.7292 25.4353 29.8233C25.4353 29.9175 25.3411 30.0117 25.3411 30.1058C25.1528 30.4825 25.0586 30.9533 24.9645 31.3299C24.8703 31.7066 24.7761 32.1774 24.682 32.554C24.5878 32.9307 24.5878 33.4015 24.4937 33.8723C24.4937 34.0606 24.4937 34.3431 24.4937 34.5314C24.4937 34.6256 24.4937 34.7198 24.4937 34.8139C24.4937 34.9081 24.4937 35.0022 24.4937 35.0964C24.4937 35.5672 24.4937 35.9439 24.5878 36.4147C24.682 36.8855 24.682 37.2621 24.7761 37.7329C24.8703 37.9213 24.8703 38.1096 24.9645 38.3921C24.9645 38.4862 25.0586 38.5804 25.0586 38.6746C25.0586 38.7687 25.1528 38.8629 25.1528 38.957C25.1528 39.0512 25.2469 39.1454 25.2469 39.2395C25.3411 39.522 25.4353 39.8045 25.6236 40.1811C25.8119 40.5578 26.0002 40.9344 26.1886 41.3111C26.3769 41.6877 26.6594 42.0644 26.8477 42.441C27.1302 42.8177 27.4127 43.1002 27.6952 43.4768C27.9776 43.7593 28.2601 44.136 28.6368 44.4184C28.9193 44.7009 29.2959 44.9834 29.5784 45.2659C29.955 45.5484 30.2375 45.7367 30.6142 46.0192C30.7083 46.1133 30.8025 46.1133 30.8967 46.2075C31.2733 46.3958 31.65 46.5842 32.0266 46.7725C32.4033 46.9608 32.7799 47.1491 33.2507 47.2433C33.6274 47.3375 34.0982 47.5258 34.4748 47.6199C34.8515 47.7141 35.3223 47.8083 35.7931 47.8083C36.2639 47.8083 36.6405 47.9024 37.1114 47.9024C37.5822 47.9024 37.9588 47.9024 38.4296 47.9024C38.9004 47.9024 39.2771 47.8083 39.7479 47.7141C40.1245 47.6199 40.5953 47.5258 40.972 47.4316C41.3486 47.3375 41.8195 47.1491 42.1961 47.055C42.5727 46.8666 42.9494 46.6783 43.4202 46.49C43.7969 46.3017 44.1735 46.1133 44.5501 45.8309C44.9268 45.5484 45.3034 45.3601 45.5859 45.0776C45.9626 44.7951 46.2451 44.5126 46.5276 44.2301C46.81 43.9476 47.0925 43.571 47.375 43.2885C47.6575 42.9118 47.94 42.6294 48.1283 42.2527C48.3166 41.9702 48.505 41.7819 48.5991 41.4994C48.7874 41.1228 48.9758 40.7461 49.1641 40.3695C49.3524 39.9928 49.5407 39.6162 49.6349 39.1454C49.7291 38.7687 49.9174 38.2979 50.0115 37.9213C50.1057 37.5446 50.1999 37.0738 50.1999 36.603C50.294 36.1322 50.294 35.7555 50.294 35.2847C50.294 34.8139 50.294 34.4373 50.294 33.9665C50.294 33.4956 50.1999 33.119 50.1057 32.6482C50.0115 32.2715 49.9174 31.8007 49.8232 31.4241C49.7291 31.0474 49.5407 30.5766 49.4466 30.2C49.2582 29.8233 49.0699 29.4467 48.8816 28.9759C48.6933 28.5992 48.505 28.2226 48.2225 27.8459C47.94 27.4693 47.7517 27.0926 47.4692 26.8101C47.1867 26.4335 46.9042 26.151 46.6217 25.8685C46.3392 25.586 45.9626 25.3036 45.6801 25.0211C45.3034 24.7386 45.021 24.4561 44.6443 24.2678C44.3618 24.0795 44.1735 23.8911 43.891 23.797C43.5144 23.6086 43.1377 23.4203 42.7611 23.232C42.3844 23.0437 42.0078 22.8553 41.537 22.7612C41.1603 22.667 40.6895 22.4787 40.3129 22.3845C39.9362 22.2904 39.4654 22.1962 38.9946 22.1962C38.4296 22.102 38.1471 22.1021 37.7705 22.1021Z" fill="#442781"/>
<g clip-path="url(#clip0_67_2039)">
<path d="M82.642 36.5H73.399L65.092 13.529H75.154L81.16 31.274L87.946 13.529H91.456L82.642 36.5ZM103.541 36.89C97.1451 36.89 91.3731 34.199 91.3731 27.374C91.3731 20.51 97.1451 17.624 103.541 17.624C109.898 17.624 115.67 19.457 115.67 25.775C115.67 26.36 115.631 26.906 115.553 27.491H100.889C100.85 28.115 100.85 28.7 100.85 29.207C100.85 33.146 101.63 34.082 103.541 34.082C105.335 34.082 105.881 32.99 105.881 31.04C105.881 30.767 105.842 30.494 105.842 30.182H115.319C115.319 30.338 115.358 30.494 115.358 30.65C115.358 34.979 110.015 36.89 103.541 36.89ZM100.928 25.112H105.959C105.998 24.761 105.998 24.41 105.998 24.098C105.998 21.602 105.062 20.51 103.424 20.51C101.864 20.51 100.889 21.602 100.889 24.137C100.889 24.449 100.889 24.761 100.928 25.112ZM129.93 36.89C122.052 36.89 117.957 33.614 117.957 27.257C117.957 20.939 122.052 17.624 129.93 17.624C137.769 17.624 141.903 19.73 141.903 23.747C141.903 24.02 141.864 24.293 141.825 24.605H132.426C132.465 24.137 132.504 23.747 132.504 23.357C132.504 21.446 131.451 20.471 130.125 20.471C128.409 20.471 127.317 21.875 127.317 27.257C127.317 32.678 128.409 34.082 130.125 34.082C131.451 34.082 132.504 33.809 132.504 31.079C132.504 30.533 132.465 29.87 132.426 29.129H141.825C141.864 29.558 141.903 29.987 141.903 30.338C141.903 34.667 137.769 36.89 129.93 36.89ZM153.752 36.89C149.15 36.89 146.342 35.33 146.342 31.586V20.978H144.236V18.014H146.342V14.309L155.117 13.451V18.014H160.07V20.978H155.117V31.274C155.117 32.522 155.78 33.107 156.872 33.107C157.847 33.107 158.471 32.6 159.056 31.664L160.85 33.068C159.524 35.408 157.496 36.89 153.752 36.89ZM172.699 36.5H163.924V18.014H170.125C170.983 18.365 172.036 19.535 172.387 21.602C173.635 18.95 175.663 17.624 178.783 17.624C183.151 17.624 186.115 20.51 186.115 24.566C186.115 25.814 185.842 27.218 185.218 28.427H177.028C177.223 27.491 177.262 26.594 177.262 25.931C177.262 23.669 176.56 22.577 175.039 22.577C173.869 22.577 172.699 23.474 172.699 26.048V36.5ZM195.628 36.89C191.065 36.89 188.608 34.862 188.608 32.132C188.608 29.285 190.285 28.076 197.344 26.243C201.322 25.19 202.063 24.332 202.063 22.538C202.063 21.212 201.322 20.51 200.308 20.51C199.255 20.51 198.553 21.251 198.553 22.85C198.553 23.162 198.592 23.552 198.67 23.903H189.232C189.193 23.63 189.154 23.357 189.154 23.123C189.154 20.159 192.274 17.624 200.191 17.624C207.406 17.624 210.838 20.315 210.838 25.697V31.625C210.838 32.444 211.15 32.834 211.774 32.834C212.32 32.834 212.71 32.561 213.022 31.976L214.777 33.224C213.685 35.408 211.618 36.89 208.342 36.89C205.339 36.89 203.623 35.798 202.726 34.16C201.4 35.876 199.333 36.89 195.628 36.89ZM199.84 33.38C201.01 33.38 202.063 32.444 202.063 30.338V26.984C201.478 27.608 201.01 27.881 200.035 28.388C198.826 29.012 198.046 29.714 198.046 31.274C198.046 32.561 198.67 33.38 199.84 33.38Z" fill="#1D1333"/>
</g>
<defs>
<clipPath id="clip0_67_2039">
<rect width="151" height="50" fill="white" transform="translate(65)"/>
</clipPath>
</defs>
</svg>
