<svg width="194" height="50" viewBox="0 0 194 50" fill="none" xmlns="http://www.w3.org/2000/svg">
<path fill-rule="evenodd" clip-rule="evenodd" d="M25.4904 48.5583C35.8826 48.5583 45.0983 41.6955 48.0394 31.6955C46.863 31.8915 45.4904 31.8916 44.314 31.8916C36.863 31.8916 30.1963 28.7544 25.4904 23.6562C20.7845 28.7544 14.1179 31.8916 6.6669 31.8916C5.49043 31.8916 4.11788 31.8915 2.94141 31.6955C6.07866 41.8915 15.0983 48.5583 25.4904 48.5583Z" fill="#8F909A"/>
<path fill-rule="evenodd" clip-rule="evenodd" d="M44.3128 27.3824C45.8814 27.3824 47.45 27.1863 49.0187 26.7941C49.0187 26.2059 49.0187 25.6177 49.0187 25.0294C49.0187 14.6373 42.1559 5.42165 32.1559 2.48047C32.352 3.65695 32.352 5.02949 32.352 6.20596C32.352 11.304 30.7834 16.2059 28.2344 20.3236C32.352 24.6373 38.0383 27.3824 44.3128 27.3824Z" fill="#8F909A"/>
<path fill-rule="evenodd" clip-rule="evenodd" d="M6.66682 27.3824C12.9413 27.3824 18.6276 24.6373 22.5492 20.1275C20.0002 16.2059 18.4315 11.304 18.4315 6.20596C18.4315 5.02949 18.4315 3.65695 18.6276 2.48047C8.82368 5.42165 1.96094 14.6373 1.96094 25.0294C1.96094 25.6177 1.96094 26.2059 1.96094 26.7941C3.52956 27.1863 5.09819 27.3824 6.66682 27.3824Z" fill="#8F909A"/>
<path fill-rule="evenodd" clip-rule="evenodd" d="M25.4896 16.0098C27.0583 13.0686 27.8426 9.73529 27.8426 6.20588C27.8426 4.63725 27.6465 3.06863 27.2544 1.5C26.6661 1.5 26.0779 1.5 25.4896 1.5C24.9014 1.5 24.3132 1.5 23.7249 1.5C23.3328 3.06863 23.1367 4.63725 23.1367 6.20588C23.1367 9.73529 24.1171 13.0686 25.4896 16.0098Z" fill="#8F909A"/>
<mask id="mask0_1837_851" style="mask-type:luminance" maskUnits="userSpaceOnUse" x="65" y="0" width="129" height="50">
<path d="M194 0H65V50H194V0Z" fill="white"/>
</mask>
<g mask="url(#mask0_1837_851)">
<path d="M78.539 30.1635C78.539 29.0415 77.219 28.6785 75.272 28.1835L72.467 27.4905C68.639 26.5335 65.207 25.1475 65.207 20.5275C65.207 15.8745 69.266 13.3005 74.15 13.3005C78.473 13.3005 81.212 14.5215 82.697 15.3795V21.3525C80.486 19.9665 76.856 18.6795 73.952 18.6795C72.236 18.6795 71.213 19.1085 71.213 20.0985C71.213 21.2535 72.566 21.6165 74.81 22.2105L77.252 22.8705C80.684 23.7945 84.314 25.0485 84.314 29.8005C84.314 34.2885 80.387 36.7305 75.14 36.7305C71.015 36.7305 67.682 35.4105 66.164 34.3215V28.5465C68.408 30.1965 72.5 31.5495 75.503 31.5495C77.813 31.5495 78.539 31.0545 78.539 30.1635ZM89.6208 17.2935C87.4428 17.2935 86.1228 16.3035 86.1228 14.6205C86.1228 12.9375 87.4428 11.9805 89.6208 11.9805C91.8318 11.9805 93.0858 12.9375 93.0858 14.6205C93.0858 16.3035 91.8318 17.2935 89.6208 17.2935ZM86.9478 18.9105H92.2278V36.4005H86.9478V18.9105ZM112.143 32.6055C112.143 39.5025 107.886 41.9445 102.969 41.9445C100.197 41.9445 97.8208 41.1525 96.3688 40.2615V34.9485C97.9858 36.1695 100.131 36.9945 102.375 36.9945C105.873 36.9945 106.863 35.4765 106.863 33.4305V33.2325C105.741 33.9585 104.289 34.5195 102.375 34.5195C98.2498 34.5195 95.0818 31.7475 95.0818 27.3255C95.0818 21.2205 99.9988 18.5805 104.751 18.5805C108.051 18.5805 110.394 19.4385 112.143 20.1315V32.6055ZM100.56 26.5995C100.56 29.0085 102.177 29.7675 103.926 29.7675C104.949 29.7675 106.005 29.5035 106.863 29.1735V23.5965C106.236 23.4315 105.51 23.2995 104.718 23.2995C102.474 23.2995 100.56 24.2895 100.56 26.5995ZM124.245 23.6955C122.892 23.6955 121.605 23.9925 120.648 24.3885V36.4005H115.368V18.9105H120.318V20.9895C121.704 19.7355 123.948 18.5805 126.654 18.5805C130.977 18.5805 132.528 21.3525 132.528 25.1805V36.4005H127.248V26.5995C127.248 24.9165 126.489 23.6955 124.245 23.6955ZM143.919 31.6155C145.272 31.6155 146.559 31.3185 147.516 30.9225V18.9105H152.796V36.4005H147.846V34.3215C146.46 35.5755 144.216 36.7305 141.51 36.7305C137.187 36.7305 135.636 33.9585 135.636 30.1305V18.9105H140.916V28.7115C140.916 30.3945 141.675 31.6155 143.919 31.6155ZM164.649 23.6955C163.428 23.6955 162.273 24.0255 161.382 24.3885V36.4005H156.102V18.9105H161.052V20.9895C162.405 19.7355 164.484 18.5805 167.058 18.5805C169.599 18.5805 171.117 19.6365 171.909 21.3525C173.196 19.9665 175.473 18.5805 178.278 18.5805C182.37 18.5805 183.822 21.3525 183.822 25.1805V36.4005H178.542V26.5995C178.542 24.8835 177.882 23.6955 175.869 23.6955C174.648 23.6955 173.46 24.0255 172.569 24.3885C172.602 24.6525 172.602 24.9165 172.602 25.1805V36.4005H167.322V26.5995C167.322 24.8835 166.662 23.6955 164.649 23.6955ZM189.779 36.8955C187.964 36.8955 186.512 35.4435 186.512 33.6285C186.512 31.8135 187.964 30.3285 189.779 30.3285C191.594 30.3285 193.079 31.8135 193.079 33.6285C193.079 35.4435 191.594 36.8955 189.779 36.8955Z" fill="#8F909A"/>
</g>
</svg>
