<svg width="185" height="50" viewBox="0 0 185 50" fill="none" xmlns="http://www.w3.org/2000/svg">
<g clip-path="url(#clip0_1837_881)">
<path fill-rule="evenodd" clip-rule="evenodd" d="M20.128 0C15.467 0 11.2297 1.69492 7.83984 4.23729L30.9331 31.9915L49.789 17.7966C48.9416 7.83898 40.467 0 30.0856 0" fill="#8F909A"/>
<path fill-rule="evenodd" clip-rule="evenodd" d="M30.0847 50.0007C41.1017 50.0007 50 41.1024 50 30.0854V29.0261L32.839 41.738C30.9322 43.221 28.178 42.7973 26.6949 41.1024L2.11864 11.4414C0.847458 13.9837 0 16.9498 0 19.9159V29.8736C0 40.8905 8.89831 49.7888 19.9153 49.7888" fill="#8F909A"/>
<mask id="mask0_1837_881" style="mask-type:luminance" maskUnits="userSpaceOnUse" x="65" y="0" width="120" height="50">
<path d="M185 0H65V50H185V0Z" fill="white"/>
</mask>
<g mask="url(#mask0_1837_881)">
<path d="M74.4372 14.9222L74.8712 15.2942C75.0572 17.4022 75.1192 19.6032 75.1192 21.7112C75.1192 25.9892 74.5612 30.3602 74.1582 33.2432L74.9332 33.2743C77.9712 30.2362 80.7922 25.3692 80.7922 21.8042C80.7922 18.9522 79.6142 17.0613 78.4672 15.8523L78.5292 15.4493C80.4202 15.0773 82.4972 14.9532 84.0162 14.9222C84.6672 15.4182 85.0702 16.1002 85.0702 17.3712C85.0702 18.2392 84.8532 19.2933 84.4192 20.6883C83.1482 24.8113 75.5842 34.7002 71.9262 36.9942C70.3452 36.8702 68.8262 36.3742 67.6792 35.7232C68.0202 31.7862 68.2682 27.6942 68.2682 23.8812C68.2682 21.6802 68.1442 19.6653 67.9892 17.9913L65.1992 15.7902L65.2612 15.3872C67.4312 15.1702 72.2672 14.9222 74.4372 14.9222ZM90.7025 17.5262C89.4935 17.5262 88.5945 16.7513 88.5945 15.6663C88.5945 14.0233 90.2065 13.0312 91.5395 13.0312C92.7485 13.0312 93.6165 13.8063 93.6165 14.8603C93.6165 16.5343 92.0355 17.5262 90.7025 17.5262ZM95.5385 32.9953C94.0505 34.6693 91.0125 36.9942 88.4085 36.9942C86.2075 36.9942 84.5025 35.8472 84.5025 33.5222C84.5025 32.4062 84.9365 30.9182 85.4945 29.1512C86.0525 27.4152 86.6415 25.4623 87.0445 23.1993L85.8665 21.4323L85.9595 20.9672C88.7495 20.6572 91.1055 20.5332 93.3995 20.5022L93.8335 20.8122C93.8335 22.0522 93.4615 24.6872 92.7175 27.3222C91.9115 30.1742 90.5785 33.3052 90.5785 34.8862C90.5785 35.1652 90.6095 35.5062 90.7025 35.6302C92.1285 35.0102 94.2985 33.4603 95.4455 32.1893L95.5385 32.2822V32.9953ZM108.424 32.0653C108.424 35.5993 104.797 36.9942 101.79 36.9942C98.5039 36.9942 95.0939 35.9712 93.9469 34.3902C94.5359 32.9642 95.5279 31.6933 96.5509 30.6393H96.8609C97.5739 32.4683 99.3409 36.2502 101.356 36.2502C102.286 36.2502 103.123 35.6922 103.123 34.5452C103.123 32.9332 101.976 32.4062 100.488 31.4762C98.0389 29.9572 96.4579 28.8723 96.4579 26.6403C96.4579 22.1453 101.852 20.5022 105.417 20.5022C108.734 20.5022 110.935 21.7113 110.935 23.6643C110.935 24.8733 110.222 25.6172 109.199 26.1442C107.649 26.3302 106.13 26.3613 104.58 26.3613L104.487 26.0512C105.231 25.2142 105.975 24.4083 105.975 23.6023C105.975 22.7033 105.045 21.4943 103.805 21.4943C102.844 21.4943 101.883 22.1453 101.883 23.7573C101.883 25.3693 102.906 26.2993 104.394 27.2293C106.843 28.7483 108.424 29.8333 108.424 32.0653ZM133.522 32.9953C132.034 34.6693 128.376 36.9942 125.772 36.9942C123.571 36.9942 122.362 35.8472 122.362 33.8322C122.362 32.1582 123.261 29.3683 124.563 26.7953L124.067 26.6403C123.974 26.8263 123.478 27.9422 123.354 28.1902C121.37 32.4992 119.293 36.9942 114.984 36.9942C112.535 36.9942 111.264 35.5372 111.264 33.5222C111.264 32.4372 112.039 30.4223 112.783 28.3453C113.558 26.2683 114.333 24.1603 114.333 22.8583C114.333 22.3933 114.147 22.2692 113.868 22.2692C113.372 22.2692 112.628 22.5483 112.008 22.9203L111.915 22.8583L112.039 22.0523C113.434 21.3083 115.356 20.5022 117.061 20.5022C119.417 20.5022 120.471 21.7113 120.471 23.7263C120.471 24.8423 119.82 26.9503 119.169 28.9343C118.518 30.9493 117.867 32.8402 117.867 33.5532C117.867 34.1112 118.177 34.2972 118.518 34.2972C119.2 34.2972 120.192 32.9952 121.339 30.7632C122.61 28.3142 124.129 24.7492 125.772 20.5022C127.973 20.6572 130.484 21.7422 131.383 22.6102C131.383 24.7802 127.973 32.0342 127.973 35.1652C127.973 35.3512 128.004 35.5372 128.066 35.6302C130.639 34.5762 132.344 33.2743 133.429 32.1273L133.522 32.2202V32.9953ZM154.099 32.6852C152.611 34.3592 148.643 36.9942 146.039 36.9942C143.838 36.9942 142.629 35.8472 142.629 33.8322C142.629 32.6852 143.063 31.6313 144.644 28.8413L143.59 28.9343C142.35 31.9103 140.18 36.9942 136.739 36.9942C134.259 36.9942 132.492 34.5143 132.492 31.0423C132.492 24.8113 135.902 20.5022 140.831 20.5022C142.474 20.5022 143.745 21.1842 144.551 22.5792L144.241 23.3543C143.559 22.4553 142.784 21.4943 141.792 21.4943C140.397 21.4943 139.188 25.7722 139.188 30.6082C139.188 32.5612 139.498 33.6462 140.087 33.6462C140.583 33.6462 141.141 32.6232 142.288 29.8952C143.156 27.8802 144.334 24.9662 145.76 20.8432C148.023 21.1532 150.503 22.3932 151.557 23.5712C151.557 24.6562 150.72 27.1052 149.883 29.4922C149.077 31.8792 148.24 34.2352 148.24 35.1652C148.24 35.3512 148.271 35.5372 148.333 35.6302C150.906 34.5762 152.921 32.9642 154.006 31.8172L154.099 31.9103V32.6852ZM156.582 36.9942C154.164 36.9942 152.676 35.6612 152.676 33.5222C152.676 32.3132 152.955 31.0423 153.606 29.0583L156.303 20.8432C157.016 18.6732 157.326 17.4022 157.481 16.1932L156.365 14.1783L156.458 13.7133C158.907 13.4343 161.325 13.2793 163.898 13.2483L164.301 13.5273C164.301 14.6743 163.712 18.4253 162.069 23.6023C161.17 26.4233 158.783 32.6232 158.783 34.8862C158.783 35.1652 158.845 35.5062 158.876 35.6302C160.519 34.9482 163.123 33.2433 164.177 32.0653L164.27 32.1582V32.8713C162.317 35.0723 158.69 36.9942 156.582 36.9942ZM178.549 36.1262C176.565 40.9622 171.946 44.2482 166.986 44.2482C164.103 44.2482 160.941 43.3182 160.6 40.5282C161.53 38.6992 163.762 36.6532 165.591 35.8472C164.103 35.3822 163.359 34.1423 163.359 32.5923C163.359 31.4763 164.165 29.6782 165.002 27.8492C165.808 25.9892 166.614 24.0983 166.614 22.8273C166.614 22.3623 166.428 22.2382 166.149 22.2382C165.839 22.2382 165.157 22.4242 164.878 22.6102L164.785 22.5482L164.909 21.8352C165.87 21.1842 167.637 20.5022 169.342 20.5022C171.698 20.5022 172.752 21.6803 172.752 23.6953C172.752 24.8113 172.039 26.7023 171.357 28.5003C170.644 30.2673 169.962 31.9102 169.962 32.6232C169.962 33.1812 170.272 33.3672 170.613 33.3672C171.109 33.3672 171.853 32.5612 172.783 31.0112C174.023 28.8722 175.573 25.4002 177.123 20.8122C179.014 21.1222 181.835 22.1762 182.92 23.5712C182.548 24.5012 179.851 32.9952 178.549 36.1262ZM165.963 37.8312C165.963 40.4042 167.389 43.1012 169.776 43.1012C170.613 43.1012 171.543 40.6212 172.504 37.5832C173.434 34.5762 174.395 31.0423 175.325 28.8103L174.705 28.9343C174.271 29.8023 173.806 30.6393 173.31 31.4453C171.729 33.9873 169.745 36.0643 167.079 36.0643C166.769 36.0643 166.49 36.0333 166.211 36.0023C166.056 36.5913 165.963 37.2112 165.963 37.8312Z" fill="#8F909A"/>
</g>
</g>
<defs>
<clipPath id="clip0_1837_881">
<rect width="185" height="50" fill="white"/>
</clipPath>
</defs>
</svg>
