<svg width="236" height="50" viewBox="0 0 236 50" fill="none" xmlns="http://www.w3.org/2000/svg">
<path fill-rule="evenodd" clip-rule="evenodd" d="M14.8126 31.25V18.75V6.25L4 12.5V25V37.5L14.8126 43.75L25.608 50L36.4206 43.75L25.608 37.5L14.8126 31.25Z" fill="#8F909A"/>
<path fill-rule="evenodd" clip-rule="evenodd" d="M25.6094 12.5V25L36.422 31.25L47.2175 37.5V25L36.422 18.75V6.25L25.6094 0V12.5Z" fill="#8F909A"/>
<mask id="mask0_1837_861" style="mask-type:luminance" maskUnits="userSpaceOnUse" x="65" y="0" width="171" height="50">
<path d="M236 0H65V50H236V0Z" fill="white"/>
</mask>
<g mask="url(#mask0_1837_861)">
<path d="M70.7889 33.6486H93.1389V36.7986H67.1289V16.3386H70.7889V33.6486ZM95.2691 29.2686C95.2691 23.8086 99.3491 21.3786 108.079 21.3786C116.839 21.3786 120.889 23.8086 120.889 29.2686C120.889 34.7286 116.839 37.1586 108.079 37.1586C99.3491 37.1586 95.2691 34.7286 95.2691 29.2686ZM98.6891 29.2686C98.6891 32.8086 101.089 34.2186 108.079 34.2186C115.069 34.2186 117.469 32.8086 117.469 29.2686C117.469 25.7586 115.069 24.3186 108.079 24.3186C101.089 24.3186 98.6891 25.7586 98.6891 29.2686ZM147.411 22.5186V34.4586C147.411 40.3986 143.721 42.5886 135.141 42.5886C131.931 42.5886 127.701 42.1086 124.611 41.2086L125.391 38.5386C128.331 39.3186 131.721 39.8586 135.321 39.8586C142.101 39.8586 144.231 38.2986 144.111 34.4886L144.051 33.7686C140.931 35.0586 137.151 36.0486 133.221 36.0486C127.101 36.0486 123.951 33.9186 123.951 28.8486C123.951 23.2986 128.451 21.4686 135.351 21.4686C140.001 21.4686 144.261 22.0086 147.411 22.5186ZM127.371 28.8186C127.371 32.0286 129.231 33.3486 133.491 33.3486C136.941 33.3486 140.511 32.6286 143.961 31.4586V24.9186C141.291 24.5586 137.841 24.2886 134.901 24.2886C130.191 24.2886 127.371 25.4586 127.371 28.8186ZM154.807 15.5586V19.6086H151.387V15.5586H154.807ZM151.387 36.7986V21.7686H154.807V36.7986H151.387ZM181.803 22.5186V42.1986H178.383V34.3386C175.203 35.8086 171.363 37.0986 167.373 37.0986C161.673 37.0986 158.463 34.8186 158.463 29.4186C158.463 23.4186 162.933 21.4686 169.653 21.4686C174.303 21.4686 178.653 21.9786 181.803 22.5186ZM161.883 29.2686C161.883 32.8086 163.743 34.2186 168.003 34.2186C171.453 34.2186 174.933 33.2286 178.383 31.9386V24.9186C175.713 24.5586 172.233 24.2886 169.293 24.2886C164.583 24.2886 161.883 25.6086 161.883 29.2686ZM185.511 29.9586V21.7686H188.931V29.5086C188.931 32.5386 190.791 34.2486 195.351 34.2486C197.871 34.2486 201.321 33.5286 205.011 32.2986V21.7686H208.431V36.7986H205.461L205.161 34.6386C201.951 35.9886 198.081 37.1586 194.271 37.1586C188.751 37.1586 185.511 35.1186 185.511 29.9586ZM224.469 34.3986C228.849 34.3986 232.539 33.7386 234.069 33.4086L234.789 35.9886C232.239 36.6486 228.039 37.1586 224.199 37.1586C215.979 37.1586 211.959 35.0886 211.959 29.2686C211.959 23.5686 216.309 21.4086 223.719 21.4086C230.529 21.4086 235.329 23.1486 235.329 28.4886C235.329 28.9986 235.269 29.8386 235.209 30.1686H215.319C215.739 33.5886 218.529 34.3986 224.469 34.3986ZM223.599 23.8386C218.259 23.8386 215.679 24.9186 215.319 28.2186H231.969C231.699 25.2486 229.749 23.8386 223.599 23.8386Z" fill="#8F909A"/>
</g>
</svg>
