<svg width="236" height="50" viewBox="0 0 236 50" fill="none" xmlns="http://www.w3.org/2000/svg">
<path fill-rule="evenodd" clip-rule="evenodd" d="M14.8126 31.25V18.75V6.25L4 12.5V25V37.5L14.8126 43.75L25.608 50L36.4206 43.75L25.608 37.5L14.8126 31.25Z" fill="#098EC2"/>
<path fill-rule="evenodd" clip-rule="evenodd" d="M25.6079 12.5V25L36.4205 31.25L47.216 37.5V25L36.4205 18.75V6.25L25.6079 0V12.5Z" fill="#7697FB"/>
<g clip-path="url(#clip0_67_2023)">
<path d="M70.79 33.65H93.14V36.8H67.13V16.34H70.79V33.65ZM95.2702 29.27C95.2702 23.81 99.3502 21.38 108.08 21.38C116.84 21.38 120.89 23.81 120.89 29.27C120.89 34.73 116.84 37.16 108.08 37.16C99.3502 37.16 95.2702 34.73 95.2702 29.27ZM98.6902 29.27C98.6902 32.81 101.09 34.22 108.08 34.22C115.07 34.22 117.47 32.81 117.47 29.27C117.47 25.76 115.07 24.32 108.08 24.32C101.09 24.32 98.6902 25.76 98.6902 29.27ZM147.412 22.52V34.46C147.412 40.4 143.722 42.59 135.142 42.59C131.932 42.59 127.702 42.11 124.612 41.21L125.392 38.54C128.332 39.32 131.722 39.86 135.322 39.86C142.102 39.86 144.232 38.3 144.112 34.49L144.052 33.77C140.932 35.06 137.152 36.05 133.222 36.05C127.102 36.05 123.952 33.92 123.952 28.85C123.952 23.3 128.452 21.47 135.352 21.47C140.002 21.47 144.262 22.01 147.412 22.52ZM127.372 28.82C127.372 32.03 129.232 33.35 133.492 33.35C136.942 33.35 140.512 32.63 143.962 31.46V24.92C141.292 24.56 137.842 24.29 134.902 24.29C130.192 24.29 127.372 25.46 127.372 28.82ZM154.808 15.56V19.61H151.388V15.56H154.808ZM151.388 36.8V21.77H154.808V36.8H151.388ZM181.804 22.52V42.2H178.384V34.34C175.204 35.81 171.364 37.1 167.374 37.1C161.674 37.1 158.464 34.82 158.464 29.42C158.464 23.42 162.934 21.47 169.654 21.47C174.304 21.47 178.654 21.98 181.804 22.52ZM161.884 29.27C161.884 32.81 163.744 34.22 168.004 34.22C171.454 34.22 174.934 33.23 178.384 31.94V24.92C175.714 24.56 172.234 24.29 169.294 24.29C164.584 24.29 161.884 25.61 161.884 29.27ZM185.512 29.96V21.77H188.932V29.51C188.932 32.54 190.792 34.25 195.352 34.25C197.872 34.25 201.322 33.53 205.012 32.3V21.77H208.432V36.8H205.462L205.162 34.64C201.952 35.99 198.082 37.16 194.272 37.16C188.752 37.16 185.512 35.12 185.512 29.96ZM224.47 34.4C228.85 34.4 232.54 33.74 234.07 33.41L234.79 35.99C232.24 36.65 228.04 37.16 224.2 37.16C215.98 37.16 211.96 35.09 211.96 29.27C211.96 23.57 216.31 21.41 223.72 21.41C230.53 21.41 235.33 23.15 235.33 28.49C235.33 29 235.27 29.84 235.21 30.17H215.32C215.74 33.59 218.53 34.4 224.47 34.4ZM223.6 23.84C218.26 23.84 215.68 24.92 215.32 28.22H231.97C231.7 25.25 229.75 23.84 223.6 23.84Z" fill="#1D1F17"/>
</g>
<defs>
<clipPath id="clip0_67_2023">
<rect width="171" height="50" fill="white" transform="translate(65)"/>
</clipPath>
</defs>
</svg>
