<svg width="205" height="50" viewBox="0 0 205 50" fill="none" xmlns="http://www.w3.org/2000/svg">
<g clip-path="url(#clip0_1837_869)">
<path d="M6.91626 24.3984V49.9992H0V29.9268L6.91626 24.3984Z" fill="#8F909A"/>
<path d="M6.91797 24.3984V49.9992H13.8342V28.6817L6.91797 24.3984Z" fill="#B6B6B6"/>
<path d="M20.5458 13.9414V49.9987H11.3242V21.5733L20.5458 13.9414Z" fill="#8F909A"/>
<path d="M20.543 13.9414V49.9987H29.7647V19.6525L20.543 13.9414Z" fill="#B6B6B6"/>
<path d="M37.5785 0V50H25.1562V11.4186L37.5785 0Z" fill="#8F909A"/>
<path d="M37.5781 0V50H50.0004V11.4186L37.5781 0Z" fill="#B6B6B6"/>
<mask id="mask0_1837_869" style="mask-type:luminance" maskUnits="userSpaceOnUse" x="65" y="0" width="140" height="50">
<path d="M205 0H65V50H205V0Z" fill="white"/>
</mask>
<g mask="url(#mask0_1837_869)">
<path d="M65.418 36.6504V14.4744H68.746V36.6504H65.418ZM77.1387 36.6504H73.9387V19.4664H76.8187V21.2584L78.6107 19.4664H84.9787L86.3547 20.8744L87.7307 19.4664H95.0267L97.2667 21.6744V36.6504H94.0667V22.4744H87.2827V36.6504H84.0827V22.4744H78.6747L77.1387 23.8504V36.6504ZM105.201 43.1464H102.001V19.4664H104.881V21.2584L106.673 19.4664H113.233L115.473 21.6744V34.4104L113.233 36.6504H105.201V43.1464ZM112.273 22.4744H106.737L105.201 23.8504V33.7064H112.273V22.4744ZM123.389 36.6504H120.189V19.4664H123.069V21.6424L125.277 19.4664H129.245V22.5384H125.213L123.389 24.2664V36.6504ZM135.142 16.3624H131.814V13.3544H135.142V16.3624ZM135.078 36.6504H131.878V19.4664H135.078V36.6504ZM143.076 36.6504H139.876V19.4664H142.756V21.2584L144.548 19.4664H151.396L153.636 21.6744V36.6504H150.404V22.4744H144.612L143.076 23.8504V36.6504ZM166.92 36.6504H161.192L158.952 34.4104V22.1224H156.584V19.4664H158.952V15.9784H162.152V19.4664H166.568V22.1224H162.152V33.6424H166.92V36.6504ZM173.423 16.3624H170.095V13.3544H173.423V16.3624ZM173.359 36.6504H170.159V19.4664H173.359V36.6504ZM182.798 36.6504H179.598V22.1224H176.814V19.4664H179.598V15.2744L181.838 13.0664H187.15V15.7224H182.798V19.4664H186.83V22.1224H182.798V36.6504ZM189.819 37.7384H192.923V40.3624H200.123V35.7224H191.803L189.595 33.5144V19.4664H192.795V32.9064H200.123V19.4664H203.323V40.9384L201.051 43.1464H192.091L189.819 40.9384V37.7384Z" fill="#8F909A"/>
</g>
</g>
<defs>
<clipPath id="clip0_1837_869">
<rect width="205" height="50" fill="white"/>
</clipPath>
</defs>
</svg>
