<svg width="205" height="50" viewBox="0 0 205 50" fill="none" xmlns="http://www.w3.org/2000/svg">
<path d="M6.91626 24.3992V50H0V29.9276L6.91626 24.3992Z" fill="#D9D9D9"/>
<path d="M6.91602 24.3992V50H13.8323V28.6825L6.91602 24.3992Z" fill="#222221"/>
<path d="M20.5444 13.9426V49.9999H11.3228V21.5745L20.5444 13.9426Z" fill="#D9D9D9"/>
<path d="M20.5444 13.9426V49.9999H29.7661V19.6537L20.5444 13.9426Z" fill="#222221"/>
<path d="M37.5776 0V50H25.1553V11.4186L37.5776 0Z" fill="#D9D9D9"/>
<path d="M37.5776 0V50H49.9999V11.4186L37.5776 0Z" fill="#222221"/>
<g clip-path="url(#clip0_67_2010)">
<path d="M65.4161 36.65V14.474H68.7441V36.65H65.4161ZM77.1368 36.65H73.9368V19.466H76.8168V21.258L78.6088 19.466H84.9768L86.3528 20.874L87.7288 19.466H95.0248L97.2648 21.674V36.65H94.0648V22.474H87.2808V36.65H84.0808V22.474H78.6728L77.1368 23.85V36.65ZM105.199 43.146H101.999V19.466H104.879V21.258L106.671 19.466H113.231L115.471 21.674V34.41L113.231 36.65H105.199V43.146ZM112.271 22.474H106.735L105.199 23.85V33.706H112.271V22.474ZM123.387 36.65H120.187V19.466H123.067V21.642L125.275 19.466H129.243V22.538H125.211L123.387 24.266V36.65ZM135.14 16.362H131.812V13.354H135.14V16.362ZM135.076 36.65H131.876V19.466H135.076V36.65ZM143.074 36.65H139.874V19.466H142.754V21.258L144.546 19.466H151.394L153.634 21.674V36.65H150.402V22.474H144.61L143.074 23.85V36.65ZM166.918 36.65H161.19L158.95 34.41V22.122H156.582V19.466H158.95V15.978H162.15V19.466H166.566V22.122H162.15V33.642H166.918V36.65ZM173.421 16.362H170.093V13.354H173.421V16.362ZM173.357 36.65H170.157V19.466H173.357V36.65ZM182.796 36.65H179.596V22.122H176.812V19.466H179.596V15.274L181.836 13.066H187.148V15.722H182.796V19.466H186.828V22.122H182.796V36.65ZM189.817 37.738H192.921V40.362H200.121V35.722H191.801L189.593 33.514V19.466H192.793V32.906H200.121V19.466H203.321V40.938L201.049 43.146H192.089L189.817 40.938V37.738Z" fill="#181717"/>
</g>
<defs>
<clipPath id="clip0_67_2010">
<rect width="140" height="50" fill="white" transform="translate(65)"/>
</clipPath>
</defs>
</svg>
