<svg width="199" height="50" viewBox="0 0 199 50" fill="none" xmlns="http://www.w3.org/2000/svg">
<g clip-path="url(#clip0_1837_894)">
<path d="M49.8648 12.0619C50.4911 9.605 49.0071 7.10557 46.5502 6.47929C44.0932 5.85302 41.5938 7.33705 40.9675 9.79398C40.3413 12.2509 41.8253 14.7504 44.2822 15.3766C46.7391 16.0029 49.2386 14.5189 49.8648 12.0619Z" fill="#1C3CF1"/>
<path d="M34.4468 7.94642C35.2753 7.11586 35.7878 5.96996 35.7878 4.70426C35.7878 2.16869 33.7324 0.113281 31.1968 0.113281C29.5939 0.113281 28.1846 0.935993 27.3635 2.18092C27.1453 2.39953 1.93732 33.4662 1.76673 33.725C0.93824 34.5555 0.425781 35.7014 0.425781 36.9671C0.425781 39.5027 2.48119 41.5581 5.01676 41.5581C6.61972 41.5581 8.029 40.7354 8.8501 39.4904C9.06801 39.2716 34.2762 8.20497 34.4468 7.94642Z" fill="#1C3CF1"/>
<path d="M40.0003 24.8602C40.8309 24.0294 41.3445 22.8819 41.3445 21.6143C41.3445 19.0788 39.2891 17.0234 36.7535 17.0234C35.1498 17.0234 33.7401 17.847 32.919 19.0929C32.699 19.3129 15.5747 40.4925 15.4028 40.7533C14.5722 41.5841 14.0586 42.7316 14.0586 43.9992C14.0586 46.5348 16.114 48.5902 18.6496 48.5902C20.2532 48.5902 21.663 47.7668 22.4841 46.5207C22.7041 46.3007 39.8285 25.1211 40.0003 24.8602Z" fill="#1C3CF1"/>
<path d="M8.55664 15.2148C10.9263 14.3132 12.1164 11.6613 11.2148 9.29153C10.3132 6.92183 7.66124 5.73172 5.29154 6.63336C2.92183 7.53499 1.73173 10.187 2.63336 12.5567C3.53499 14.9264 6.18694 16.1165 8.55664 15.2148Z" fill="#1C3CF1"/>
<mask id="mask0_1837_894" style="mask-type:luminance" maskUnits="userSpaceOnUse" x="65" y="0" width="134" height="50">
<path d="M199 0H65V50H199V0Z" fill="white"/>
</mask>
<g mask="url(#mask0_1837_894)">
<path d="M71.898 36.849L65.082 13.937H67.482L72.122 29.681C72.442 30.801 72.73 31.953 73.018 33.457C73.402 31.793 73.722 30.801 74.074 29.681L79.066 13.937H81.466L86.458 29.681C86.81 30.833 87.13 31.985 87.482 33.457C87.834 31.697 88.122 30.577 88.378 29.713L93.114 13.937H95.45L88.57 36.849H86.394L80.25 17.393L74.106 36.849H71.898ZM96.4797 36.849H94.1437L102.56 13.937H105.408L113.92 36.849H111.52L109.28 30.769H98.7197L96.4797 36.849ZM103.68 17.169L99.4237 28.753H108.544L104.256 17.169C104.16 16.849 104 16.465 103.968 16.241C103.936 16.433 103.808 16.849 103.68 17.169ZM120.229 27.281L112.453 13.937H115.045L120.709 23.825C120.965 24.305 121.157 24.689 121.381 25.201C121.669 24.625 121.669 24.625 122.085 23.825L127.685 13.937H130.213L122.533 27.281V36.849H120.229V27.281ZM137.228 13.457V33.073H147.02V36.849H133.132V13.457H137.228ZM154.446 13.457V36.849H150.35V13.457H154.446ZM163.664 36.849H159.632V13.457H163.696L174.672 30.033V13.457H178.704V36.849H174.672L163.664 20.273V36.849ZM198.41 36.849H183.882V13.457H198.41V17.233H187.978V23.249H197.322V26.865H187.978V33.073H198.41V36.849Z" fill="white"/>
</g>
</g>
<defs>
<clipPath id="clip0_1837_894">
<rect width="199" height="50" fill="white"/>
</clipPath>
</defs>
</svg>
