<svg width="50" height="50" viewBox="0 0 50 50" fill="none" xmlns="http://www.w3.org/2000/svg">
<path fill-rule="evenodd" clip-rule="evenodd" d="M25.4904 48.5587C35.8826 48.5587 45.0983 41.696 48.0394 31.696C46.863 31.892 45.4904 31.892 44.314 31.892C36.863 31.892 30.1963 28.7548 25.4904 23.6567C20.7845 28.7548 14.1179 31.892 6.6669 31.892C5.49043 31.892 4.11788 31.892 2.94141 31.696C6.07866 41.892 15.0983 48.5587 25.4904 48.5587Z" fill="#057475"/>
<path fill-rule="evenodd" clip-rule="evenodd" d="M44.3138 27.3822C45.8824 27.3822 47.451 27.1861 49.0197 26.7939C49.0197 26.2057 49.0197 25.6175 49.0197 25.0292C49.0197 14.6371 42.1569 5.4214 32.1569 2.48022C32.353 3.6567 32.353 5.02924 32.353 6.20571C32.353 11.3038 30.7844 16.2057 28.2354 20.3234C32.353 24.6371 38.0393 27.3822 44.3138 27.3822Z" fill="#69C5C5"/>
<path fill-rule="evenodd" clip-rule="evenodd" d="M6.66682 27.3822C12.9413 27.3822 18.6276 24.6371 22.5492 20.1273C20.0002 16.2057 18.4315 11.3038 18.4315 6.20571C18.4315 5.02924 18.4315 3.6567 18.6276 2.48022C8.82368 5.4214 1.96094 14.6371 1.96094 25.0292C1.96094 25.6175 1.96094 26.2057 1.96094 26.7939C3.52956 27.1861 5.09819 27.3822 6.66682 27.3822Z" fill="#69C5C5"/>
<path fill-rule="evenodd" clip-rule="evenodd" d="M25.4901 16.0098C27.0588 13.0686 27.8431 9.73529 27.8431 6.20588C27.8431 4.63725 27.647 3.06863 27.2549 1.5C26.6666 1.5 26.0784 1.5 25.4901 1.5C24.9019 1.5 24.3137 1.5 23.7254 1.5C23.3333 3.06863 23.1372 4.63725 23.1372 6.20588C23.1372 9.73529 24.1176 13.0686 25.4901 16.0098Z" fill="#057475"/>
</svg>
