<?xml version="1.0" encoding="UTF-8"?>
<svg id="_Шар_1" data-name="Шар 1" xmlns="http://www.w3.org/2000/svg" viewBox="0 0 433.57 101.27">
  <defs>
    <style>
      .cls-1 {
        fill: #fff;
      }
    </style>
  </defs>
  <path class="cls-1" d="m433.57,55.91c0-2.96-2.4-5.35-5.35-5.35h-6.43c-4.78,0-7.17-5.77-3.8-9.15,5.21-5.22,11.24-11.27,14.02-14.06,1-1.01,1.56-2.37,1.56-3.79V5.37C433.57,2.4,431.17,0,428.2,0h-16.11c-.93,0-1.81.37-2.46,1.04l-25.64,26.16c-.64.65-1,1.53-.99,2.45l.09,14.54c0,3.58-2.89,6.47-6.46,6.47h-39.72c-4.77,0-7.16-5.78-3.79-9.16l33.15-35.68c2.06-2.22.49-5.82-2.54-5.82h-38.32c-1.42,0-2.79.57-3.79,1.58l-21.74,21.88c-1,1.01-1.56,2.37-1.56,3.79v41.73c0,3.69,2.99,6.69,6.69,6.69h72.7c2.96,0,5.37,2.4,5.37,5.37v14.87c0,2.96,2.4,5.37,5.37,5.37h18.03c1.42,0,2.78-.56,3.78-1.57l21.73-21.79c1-1.01,1.57-2.37,1.57-3.79,0-4.01,0-12.59,0-18.21Z"/>
  <path class="cls-1" d="m108.36,74.91v-7.73h0v-7.86c0-1.51-.53-2.9-1.43-4.01l-1.13-1.1-13.42-13.12c-1.25-1.22-2.93-1.91-4.69-1.91h-19.33c-3.67,0-6.65,2.92-6.65,6.51v7.24c0,1.78.75,3.49,2.07,4.72l6.34,5.88,5.1,4.73c1.92,1.78.63,4.93-2.01,4.93H31.46c-3.31,0-5.99-2.63-5.99-5.87v-19.08c0-1.63.7-3.19,1.92-4.3l16.66-15.14c1.11-1.01,2.56-1.57,4.07-1.57h55.62c.74,0,1.45-.29,1.98-.8l21.74-20.9c1.86-1.79.59-4.92-1.98-4.92H30.12c-2.98,0-5.86,1.1-8.06,3.08L2.49,21.4c-1.59,1.45-2.49,3.47-2.49,5.59v50.62c0,.98.38,1.92,1.06,2.62l19.16,19.89c.71.74,1.69,1.16,2.72,1.16h58.55c1.58,0,3.11-.62,4.23-1.73l20.89-20.48c1.12-1.1,1.75-2.59,1.75-4.15Z"/>
  <path class="cls-1" d="m173.09,50.63c0-.48.2-.93.55-1.26l22.18-20.56c1.11-1.01,2.56-1.56,4.08-1.56h55.62c.73,0,1.44-.29,1.98-.81l21.74-20.89c1.86-1.78.59-4.92-1.98-4.92h-95.36c-2.98,0-5.86,1.1-8.06,3.09l-19.57,17.68c-1.59,1.44-2.49,3.47-2.49,5.59v68.91c0,2.96,2.4,5.37,5.37,5.37h102.77c1.42,0,2.8-.57,3.8-1.58l21.74-21.88c1-1,1.56-2.36,1.56-3.79v-28.69c0-2.17-1.76-3.92-3.92-3.92h-85.82c-1.22,0-2.39.48-3.26,1.35l-16.14,16.13h0s-1.86,1.87-1.86,1.87c-1.08,1.08-2.93.31-2.93-1.21v-8.9Zm79.13,9.14l-23,24.75c-.4.43-.97.68-1.56.68h-32.11c-1.9,0-2.86-2.28-1.53-3.64l7.33-7.48c.64-.65,1-1.54.99-2.45l-.09-14.54c0-3.58,2.89-6.47,6.46-6.47h39.72c4.77,0,7.15,5.78,3.79,9.16Z"/>
  <path class="cls-1" d="m139.62,74.37h-12.43c-.81,0-1.58.32-2.15.89l-20.85,20.81c-1.92,1.92-.56,5.2,2.15,5.2h33.28c1.68,0,3.04-1.36,3.04-3.04v-20.81c0-1.68-1.36-3.05-3.04-3.05Z"/>
</svg>